<svg width="388" height="129" viewBox="0 0 388 129" fill="none" xmlns="http://www.w3.org/2000/svg">
<path d="M343.5 39C340 42.3333 333 49.1 333 49.5L365 81.5L333 114L343.5 124.5L386.5 81.5L343.5 39Z" fill="#7C7A7A" stroke="#7C7A7A"/>
<path d="M75.3383 119V39.2831H87.0518C94.0655 39.2831 99.2353 41.2353 102.561 45.1398C105.887 49.0082 107.55 54.7203 107.55 62.2763C107.55 66.7592 106.755 70.6456 105.164 73.9355C103.61 77.1893 101.712 79.5754 99.4703 81.0938L107.442 119H95.7285L89.1125 85.3779H87.0518V119H75.3383ZM87.0518 74.5321C89.221 74.5321 90.9383 74.0621 92.2036 73.1221C93.469 72.146 94.3728 70.7722 94.9151 69.0007C95.4574 67.2292 95.7285 65.1323 95.7285 62.7101C95.7285 58.9141 95.0958 56.0038 93.8305 53.9792C92.6013 51.9185 90.3417 50.8881 87.0518 50.8881V74.5321ZM114.917 119L126.956 39.2831H141.273L153.311 119H141.923L139.754 102.731H128.474L126.305 119H114.917ZM130.101 90.367H138.127L134.765 63.5778L134.44 59.3479H133.789L133.464 63.5778L130.101 90.367ZM177.842 119.868C174.516 119.868 171.678 119.127 169.328 117.644C167.014 116.126 165.242 114.065 164.013 111.462C162.82 108.859 162.224 105.913 162.224 102.623V55.6603C162.224 52.4066 162.838 49.4782 164.067 46.8752C165.333 44.2722 167.14 42.2115 169.49 40.693C171.84 39.1746 174.624 38.4154 177.842 38.4154C180.264 38.4154 182.433 38.8673 184.349 39.7712C186.265 40.675 187.892 41.9222 189.23 43.513C190.604 45.0675 191.652 46.8933 192.375 48.9901C193.098 51.0508 193.46 53.2742 193.46 55.6603V66.6146H182.505V55.6603C182.505 53.9973 182.162 52.6054 181.475 51.4847C180.788 50.3639 179.649 49.8036 178.059 49.8036C176.612 49.8036 175.564 50.382 174.913 51.5389C174.263 52.6958 173.937 54.0696 173.937 55.6603V102.623C173.937 104.214 174.281 105.587 174.968 106.744C175.691 107.901 176.721 108.48 178.059 108.48C179.685 108.48 180.824 107.919 181.475 106.798C182.162 105.678 182.505 104.286 182.505 102.623V91.6685H193.46V102.623C193.46 105.877 192.827 108.805 191.562 111.408C190.296 114.011 188.489 116.072 186.139 117.59C183.825 119.108 181.059 119.868 177.842 119.868ZM204.891 119V39.2831H216.605V72.2544H225.715V39.2831H237.429V119H225.715V84.2933H216.605V119H204.891ZM297.132 119V51.322H286.07V39.2831H319.909V51.322H308.846V119H297.132Z" fill="#7C7A7A"/>
<path fill-rule="evenodd" clip-rule="evenodd" d="M270 45H257V49H270V45ZM270 50H257L260 119H267.5L270 50Z" fill="#FF0000"/>
<path fill-rule="evenodd" clip-rule="evenodd" d="M276.5 26L263 0L250 26L257 41.0194L270 41L276.5 26ZM263.5 33C265.985 33 268 30.7614 268 28C268 25.2386 265.985 23 263.5 23C261.015 23 259 25.2386 259 28C259 30.7614 261.015 33 263.5 33Z" fill="#FF0000"/>
<path d="M53 62.5V42.5V41H30.5V52L13 68.5H0V90H11L30.5 109.5V122.5H53V99H36L21 85V75.5L36 62.5H53Z" fill="#7C7A7A"/>
</svg>
