<svg width="600" height="400" viewBox="0 0 600 400" fill="none" xmlns="http://www.w3.org/2000/svg">
<g clip-path="url(#clip0_13_8)">
<rect width="600" height="400" rx="30" fill="url(#paint0_linear_13_8)"/>
<g filter="url(#filter0_d_13_8)">
<rect x="25" y="25" width="550" height="350" rx="30" fill="#161616" fill-opacity="0.27" shape-rendering="crispEdges"/>
</g>
<g filter="url(#filter1_f_13_8)">
<mask id="path-3-outside-1_13_8" maskUnits="userSpaceOnUse" x="186" y="136" width="223" height="150" fill="black">
<rect fill="white" x="186" y="136" width="223" height="150"/>
<path d="M261.538 141.885L249.767 187.915H254.071C256.121 187.857 257.673 187.827 258.727 187.827C260.074 187.827 261.07 189.262 261.714 192.132C261.831 192.834 261.889 193.42 261.889 193.889C261.831 195.177 260.338 195.85 257.409 195.909C254.481 195.909 251.173 196.026 247.483 196.26L243.794 209.788C238.523 228.118 235.888 243.286 235.888 255.291C235.946 267.355 238.523 275.641 243.618 280.151C244.614 280.853 245.141 281.439 245.199 281.907C245.082 282.493 244.584 282.786 243.706 282.786C242.828 282.844 241.92 282.581 240.983 281.995C235.946 279.243 232.198 273.357 229.739 264.339C228.509 259.771 227.894 255.408 227.894 251.25C227.894 240.475 230.442 225.19 235.537 205.396L237.645 197.051L223.238 198.632C216.27 226.508 211.995 242.407 210.413 246.331C208.832 250.255 207.339 253.505 205.933 256.082C204.528 258.658 202.215 261.352 198.994 264.163C195.831 266.974 193.547 268.35 192.142 268.292C190.736 268.233 190.004 267.94 189.946 267.413C189.946 266.886 190.297 266.096 191 265.042C198.847 253.095 205.201 235.936 210.062 213.565L213.576 199.247H213.312C201.248 199.247 194.221 199.071 192.23 198.72C190.297 198.369 188.98 197.637 188.277 196.524C187.574 195.353 187.193 194.386 187.135 193.625C187.135 192.747 187.691 192.22 188.804 192.044C188.98 192.044 189.097 192.015 189.155 191.956L215.947 189.584L224.82 153.569C225.054 152.69 225.347 151.255 225.698 149.264C226.108 147.273 226.752 145.926 227.631 145.223C228.509 144.521 230.383 144.169 233.253 144.169C234.951 144.286 235.829 145.077 235.888 146.541C235.888 147.185 235.859 147.683 235.8 148.034L225.61 188.882C232.169 188.53 236.971 188.296 240.017 188.179L250.558 147.332C250.792 146.453 251.055 145.018 251.348 143.027C251.7 140.978 252.315 139.631 253.193 138.987C254.13 138.284 256.063 137.932 258.991 137.932C260.689 138.05 261.567 138.899 261.626 140.48C261.626 141.066 261.597 141.534 261.538 141.885ZM273.748 204.957C274.92 204.781 277.438 202.263 281.303 197.402C285.168 192.542 287.1 188.735 287.1 185.983C287.1 185.573 286.954 185.104 286.661 184.577C285.49 185.748 283.03 189.086 279.282 194.591C275.593 200.096 273.748 203.551 273.748 204.957ZM308.71 218.045C311.638 214.883 313.278 214.327 313.629 216.376C313.629 217.138 313.161 218.397 312.224 220.154C309.354 225.483 304.962 231.134 299.047 237.107C289.677 246.595 281.391 251.338 274.188 251.338C270.791 251.338 267.892 250.372 265.491 248.439C260.982 244.75 258.727 238.337 258.727 229.202C258.727 223.99 260.308 216.669 263.471 207.241C266.692 197.754 271.611 189.174 278.228 181.503C281.156 177.755 284.202 175.881 287.364 175.881C288.887 175.881 290.468 176.203 292.108 176.847C295.973 178.428 297.905 180.976 297.905 184.489C297.905 185.016 297.73 185.866 297.378 187.037C294.977 191.78 291.112 197.256 285.783 203.463C280.454 209.671 275.037 214.62 269.532 218.309C267.658 225.102 266.721 230.402 266.721 234.209C266.721 238.015 266.809 240.445 266.984 241.5C267.511 243.959 269.473 245.189 272.87 245.189C276.266 245.189 280.19 243.637 284.641 240.533C289.092 237.371 293.835 233.213 298.871 228.06C303.908 222.906 306.748 220.007 307.392 219.363C308.095 218.719 308.534 218.28 308.71 218.045ZM307.392 253.446C307.392 258.19 308.329 262.758 310.203 267.15C313.366 274.529 318.051 278.218 324.258 278.218C329.119 278.218 333.189 276.959 336.468 274.441C339.806 271.981 343.73 267.911 348.239 262.231C349.645 260.415 351.109 259.8 352.632 260.386C354.154 260.913 354.915 262.113 354.915 263.987C354.915 269.492 351.636 274.207 345.077 278.13C338.577 282.054 332.369 284.016 326.454 284.016C308.944 284.016 300.189 273.65 300.189 252.919C300.189 243.842 301.887 234.384 305.284 224.546L306.162 221.998C317.114 190.609 325.605 169.556 331.637 158.839C335.853 151.109 340.421 147.244 345.341 147.244C352.309 147.302 355.852 149.821 355.97 154.798C355.97 157.902 353.891 162.821 349.733 169.556C345.575 176.232 337.23 187.915 324.697 204.605C321.535 208.178 318.724 212.219 316.264 216.728C310.35 227.855 307.392 240.094 307.392 253.446ZM323.555 194.767C324.434 194.708 328.475 188.384 335.678 175.793C342.939 163.143 346.541 156.614 346.483 156.204C346.424 155.735 346.19 155.501 345.78 155.501C345.37 155.443 345.106 155.472 344.989 155.589C343.057 156.76 338.957 162.997 332.691 174.3C326.484 185.543 323.38 192.22 323.38 194.328C323.38 194.503 323.438 194.65 323.555 194.767ZM344.286 253.446C344.286 258.19 345.223 262.758 347.097 267.15C350.26 274.529 354.945 278.218 361.152 278.218C366.013 278.218 370.083 276.959 373.363 274.441C376.701 271.981 380.624 267.911 385.134 262.231C386.539 260.415 388.003 259.8 389.526 260.386C391.048 260.913 391.81 262.113 391.81 263.987C391.81 269.492 388.53 274.207 381.971 278.13C375.471 282.054 369.263 284.016 363.348 284.016C345.838 284.016 337.083 273.65 337.083 252.919C337.083 243.842 338.782 234.384 342.178 224.546L343.057 221.998C354.008 190.609 362.499 169.556 368.531 158.839C372.748 151.109 377.315 147.244 382.235 147.244C389.204 147.302 392.747 149.821 392.864 154.798C392.864 157.902 390.785 162.821 386.627 169.556C382.469 176.232 374.124 187.915 361.592 204.605C358.429 208.178 355.618 212.219 353.159 216.728C347.244 227.855 344.286 240.094 344.286 253.446ZM360.45 194.767C361.328 194.708 365.369 188.384 372.572 175.793C379.834 163.143 383.435 156.614 383.377 156.204C383.318 155.735 383.084 155.501 382.674 155.501C382.264 155.443 382 155.472 381.883 155.589C379.951 156.76 375.851 162.997 369.585 174.3C363.378 185.543 360.274 192.22 360.274 194.328C360.274 194.503 360.332 194.65 360.45 194.767ZM401.56 186.334C398.632 186.803 394.855 194.123 390.228 208.295C385.602 222.467 383.289 230.841 383.289 233.418C383.289 235.995 383.523 237.283 383.992 237.283C386.451 237.283 390.287 232.013 395.499 221.471C400.711 210.872 403.317 201.18 403.317 192.395C403.317 188.413 402.731 186.393 401.56 186.334ZM400.155 175.441C401.794 175.441 403.2 175.91 404.371 176.847C406.421 178.604 407.446 182 407.446 187.037C407.446 210.052 403.346 227.298 395.148 238.776L393.918 240.621C388.823 248 384.724 251.689 381.62 251.689C377.813 251.279 375.617 248.498 375.032 243.344C375.032 239.069 376.759 230.402 380.214 217.343C383.728 204.283 387.74 192.981 392.249 183.435C394.826 178.165 397.461 175.5 400.155 175.441Z"/>
</mask>
<path d="M261.538 141.885L249.767 187.915H254.071C256.121 187.857 257.673 187.827 258.727 187.827C260.074 187.827 261.07 189.262 261.714 192.132C261.831 192.834 261.889 193.42 261.889 193.889C261.831 195.177 260.338 195.85 257.409 195.909C254.481 195.909 251.173 196.026 247.483 196.26L243.794 209.788C238.523 228.118 235.888 243.286 235.888 255.291C235.946 267.355 238.523 275.641 243.618 280.151C244.614 280.853 245.141 281.439 245.199 281.907C245.082 282.493 244.584 282.786 243.706 282.786C242.828 282.844 241.92 282.581 240.983 281.995C235.946 279.243 232.198 273.357 229.739 264.339C228.509 259.771 227.894 255.408 227.894 251.25C227.894 240.475 230.442 225.19 235.537 205.396L237.645 197.051L223.238 198.632C216.27 226.508 211.995 242.407 210.413 246.331C208.832 250.255 207.339 253.505 205.933 256.082C204.528 258.658 202.215 261.352 198.994 264.163C195.831 266.974 193.547 268.35 192.142 268.292C190.736 268.233 190.004 267.94 189.946 267.413C189.946 266.886 190.297 266.096 191 265.042C198.847 253.095 205.201 235.936 210.062 213.565L213.576 199.247H213.312C201.248 199.247 194.221 199.071 192.23 198.72C190.297 198.369 188.98 197.637 188.277 196.524C187.574 195.353 187.193 194.386 187.135 193.625C187.135 192.747 187.691 192.22 188.804 192.044C188.98 192.044 189.097 192.015 189.155 191.956L215.947 189.584L224.82 153.569C225.054 152.69 225.347 151.255 225.698 149.264C226.108 147.273 226.752 145.926 227.631 145.223C228.509 144.521 230.383 144.169 233.253 144.169C234.951 144.286 235.829 145.077 235.888 146.541C235.888 147.185 235.859 147.683 235.8 148.034L225.61 188.882C232.169 188.53 236.971 188.296 240.017 188.179L250.558 147.332C250.792 146.453 251.055 145.018 251.348 143.027C251.7 140.978 252.315 139.631 253.193 138.987C254.13 138.284 256.063 137.932 258.991 137.932C260.689 138.05 261.567 138.899 261.626 140.48C261.626 141.066 261.597 141.534 261.538 141.885ZM273.748 204.957C274.92 204.781 277.438 202.263 281.303 197.402C285.168 192.542 287.1 188.735 287.1 185.983C287.1 185.573 286.954 185.104 286.661 184.577C285.49 185.748 283.03 189.086 279.282 194.591C275.593 200.096 273.748 203.551 273.748 204.957ZM308.71 218.045C311.638 214.883 313.278 214.327 313.629 216.376C313.629 217.138 313.161 218.397 312.224 220.154C309.354 225.483 304.962 231.134 299.047 237.107C289.677 246.595 281.391 251.338 274.188 251.338C270.791 251.338 267.892 250.372 265.491 248.439C260.982 244.75 258.727 238.337 258.727 229.202C258.727 223.99 260.308 216.669 263.471 207.241C266.692 197.754 271.611 189.174 278.228 181.503C281.156 177.755 284.202 175.881 287.364 175.881C288.887 175.881 290.468 176.203 292.108 176.847C295.973 178.428 297.905 180.976 297.905 184.489C297.905 185.016 297.73 185.866 297.378 187.037C294.977 191.78 291.112 197.256 285.783 203.463C280.454 209.671 275.037 214.62 269.532 218.309C267.658 225.102 266.721 230.402 266.721 234.209C266.721 238.015 266.809 240.445 266.984 241.5C267.511 243.959 269.473 245.189 272.87 245.189C276.266 245.189 280.19 243.637 284.641 240.533C289.092 237.371 293.835 233.213 298.871 228.06C303.908 222.906 306.748 220.007 307.392 219.363C308.095 218.719 308.534 218.28 308.71 218.045ZM307.392 253.446C307.392 258.19 308.329 262.758 310.203 267.15C313.366 274.529 318.051 278.218 324.258 278.218C329.119 278.218 333.189 276.959 336.468 274.441C339.806 271.981 343.73 267.911 348.239 262.231C349.645 260.415 351.109 259.8 352.632 260.386C354.154 260.913 354.915 262.113 354.915 263.987C354.915 269.492 351.636 274.207 345.077 278.13C338.577 282.054 332.369 284.016 326.454 284.016C308.944 284.016 300.189 273.65 300.189 252.919C300.189 243.842 301.887 234.384 305.284 224.546L306.162 221.998C317.114 190.609 325.605 169.556 331.637 158.839C335.853 151.109 340.421 147.244 345.341 147.244C352.309 147.302 355.852 149.821 355.97 154.798C355.97 157.902 353.891 162.821 349.733 169.556C345.575 176.232 337.23 187.915 324.697 204.605C321.535 208.178 318.724 212.219 316.264 216.728C310.35 227.855 307.392 240.094 307.392 253.446ZM323.555 194.767C324.434 194.708 328.475 188.384 335.678 175.793C342.939 163.143 346.541 156.614 346.483 156.204C346.424 155.735 346.19 155.501 345.78 155.501C345.37 155.443 345.106 155.472 344.989 155.589C343.057 156.76 338.957 162.997 332.691 174.3C326.484 185.543 323.38 192.22 323.38 194.328C323.38 194.503 323.438 194.65 323.555 194.767ZM344.286 253.446C344.286 258.19 345.223 262.758 347.097 267.15C350.26 274.529 354.945 278.218 361.152 278.218C366.013 278.218 370.083 276.959 373.363 274.441C376.701 271.981 380.624 267.911 385.134 262.231C386.539 260.415 388.003 259.8 389.526 260.386C391.048 260.913 391.81 262.113 391.81 263.987C391.81 269.492 388.53 274.207 381.971 278.13C375.471 282.054 369.263 284.016 363.348 284.016C345.838 284.016 337.083 273.65 337.083 252.919C337.083 243.842 338.782 234.384 342.178 224.546L343.057 221.998C354.008 190.609 362.499 169.556 368.531 158.839C372.748 151.109 377.315 147.244 382.235 147.244C389.204 147.302 392.747 149.821 392.864 154.798C392.864 157.902 390.785 162.821 386.627 169.556C382.469 176.232 374.124 187.915 361.592 204.605C358.429 208.178 355.618 212.219 353.159 216.728C347.244 227.855 344.286 240.094 344.286 253.446ZM360.45 194.767C361.328 194.708 365.369 188.384 372.572 175.793C379.834 163.143 383.435 156.614 383.377 156.204C383.318 155.735 383.084 155.501 382.674 155.501C382.264 155.443 382 155.472 381.883 155.589C379.951 156.76 375.851 162.997 369.585 174.3C363.378 185.543 360.274 192.22 360.274 194.328C360.274 194.503 360.332 194.65 360.45 194.767ZM401.56 186.334C398.632 186.803 394.855 194.123 390.228 208.295C385.602 222.467 383.289 230.841 383.289 233.418C383.289 235.995 383.523 237.283 383.992 237.283C386.451 237.283 390.287 232.013 395.499 221.471C400.711 210.872 403.317 201.18 403.317 192.395C403.317 188.413 402.731 186.393 401.56 186.334ZM400.155 175.441C401.794 175.441 403.2 175.91 404.371 176.847C406.421 178.604 407.446 182 407.446 187.037C407.446 210.052 403.346 227.298 395.148 238.776L393.918 240.621C388.823 248 384.724 251.689 381.62 251.689C377.813 251.279 375.617 248.498 375.032 243.344C375.032 239.069 376.759 230.402 380.214 217.343C383.728 204.283 387.74 192.981 392.249 183.435C394.826 178.165 397.461 175.5 400.155 175.441Z" fill="#F41FD2"/>
<path d="M261.538 141.885L262.563 142.148L262.575 142.104L262.582 142.059L261.538 141.885ZM249.767 187.915L248.742 187.653L248.404 188.973H249.767V187.915ZM254.071 187.915V188.973H254.087L254.102 188.973L254.071 187.915ZM261.714 192.132L262.758 191.958L262.753 191.929L262.746 191.9L261.714 192.132ZM261.889 193.889L262.947 193.937L262.948 193.913V193.889H261.889ZM257.409 195.909V196.967H257.42L257.431 196.967L257.409 195.909ZM247.483 196.26L247.416 195.204L246.661 195.252L246.462 195.982L247.483 196.26ZM243.794 209.788L244.811 210.081L244.813 210.074L244.815 210.067L243.794 209.788ZM235.888 255.291L234.83 255.291L234.83 255.296L235.888 255.291ZM243.618 280.151L242.917 280.943L242.96 280.982L243.008 281.015L243.618 280.151ZM245.199 281.907L246.237 282.115L246.271 281.947L246.249 281.776L245.199 281.907ZM243.706 282.786V281.728H243.671L243.636 281.73L243.706 282.786ZM240.983 281.995L241.544 281.098L241.517 281.082L241.49 281.067L240.983 281.995ZM229.739 264.339L228.717 264.614L228.718 264.617L229.739 264.339ZM235.537 205.396L236.561 205.66L236.563 205.655L235.537 205.396ZM237.645 197.051L238.671 197.31L239.044 195.833L237.529 195.999L237.645 197.051ZM223.238 198.632L223.123 197.58L222.391 197.661L222.212 198.375L223.238 198.632ZM198.994 264.163L198.298 263.366L198.291 263.372L198.994 264.163ZM189.946 267.413H188.888V267.472L188.894 267.53L189.946 267.413ZM191 265.042L191.881 265.629L191.885 265.623L191 265.042ZM210.062 213.565L209.034 213.313L209.031 213.327L209.028 213.341L210.062 213.565ZM213.576 199.247L214.603 199.499L214.925 198.189H213.576V199.247ZM192.23 198.72L192.04 199.761L192.046 199.762L192.23 198.72ZM188.277 196.524L187.369 197.068L187.376 197.079L187.382 197.089L188.277 196.524ZM187.135 193.625H186.077V193.666L186.08 193.706L187.135 193.625ZM188.804 192.044V190.986H188.721L188.639 190.999L188.804 192.044ZM189.155 191.956L189.062 190.902L188.679 190.936L188.407 191.208L189.155 191.956ZM215.947 189.584L216.041 190.638L216.794 190.572L216.975 189.837L215.947 189.584ZM224.82 153.569L223.797 153.296L223.795 153.306L223.792 153.315L224.82 153.569ZM225.698 149.264L224.662 149.051L224.659 149.066L224.656 149.08L225.698 149.264ZM233.253 144.169L233.325 143.114L233.289 143.111H233.253V144.169ZM235.888 146.541H236.946V146.52L236.945 146.499L235.888 146.541ZM235.8 148.034L236.827 148.291L236.837 148.25L236.844 148.208L235.8 148.034ZM225.61 188.882L224.583 188.625L224.237 190.015L225.667 189.938L225.61 188.882ZM240.017 188.179L240.057 189.236L240.844 189.206L241.041 188.443L240.017 188.179ZM250.558 147.332L249.535 147.059L249.533 147.067L250.558 147.332ZM251.348 143.027L250.305 142.849L250.303 142.861L250.301 142.873L251.348 143.027ZM253.193 138.987L253.819 139.84L253.828 139.833L253.193 138.987ZM258.991 137.932L259.063 136.877L259.027 136.874H258.991V137.932ZM261.626 140.48H262.684V140.46L262.683 140.441L261.626 140.48ZM260.513 141.623L248.742 187.653L250.792 188.177L262.563 142.148L260.513 141.623ZM249.767 188.973H254.071V186.857H249.767V188.973ZM254.102 188.973C256.149 188.915 257.689 188.886 258.727 188.886V186.769C257.658 186.769 256.093 186.799 254.041 186.857L254.102 188.973ZM258.727 188.886C258.953 188.886 259.249 188.98 259.615 189.507C259.999 190.061 260.371 190.983 260.681 192.364L262.746 191.9C262.412 190.411 261.965 189.181 261.353 188.3C260.723 187.392 259.848 186.769 258.727 186.769V188.886ZM260.67 192.306C260.782 192.977 260.831 193.5 260.831 193.889H262.948C262.948 193.34 262.88 192.692 262.758 191.958L260.67 192.306ZM260.832 193.841C260.826 193.973 260.79 194.17 260.291 194.395C259.739 194.644 258.804 194.823 257.388 194.851L257.431 196.967C258.943 196.937 260.219 196.749 261.161 196.325C262.154 195.877 262.894 195.093 262.947 193.937L260.832 193.841ZM257.409 194.851C254.454 194.851 251.122 194.969 247.416 195.204L247.55 197.316C251.223 197.083 254.509 196.967 257.409 196.967V194.851ZM246.462 195.982L242.773 209.51L244.815 210.067L248.504 196.539L246.462 195.982ZM242.777 209.496C237.493 227.872 234.83 243.146 234.83 255.291H236.946C236.946 243.425 239.554 228.364 244.811 210.081L242.777 209.496ZM234.83 255.296C234.889 267.443 237.473 276.125 242.917 280.943L244.319 279.358C239.574 275.158 237.004 267.266 236.946 255.286L234.83 255.296ZM243.008 281.015C243.472 281.343 243.783 281.613 243.973 281.825C244.18 282.054 244.159 282.12 244.149 282.039L246.249 281.776C246.181 281.227 245.868 280.766 245.547 280.409C245.21 280.035 244.76 279.661 244.228 279.286L243.008 281.015ZM244.162 281.7C244.158 281.719 244.157 281.708 244.173 281.685C244.19 281.661 244.205 281.652 244.202 281.654C244.179 281.668 244.047 281.728 243.706 281.728V283.844C244.243 283.844 244.8 283.758 245.275 283.478C245.793 283.173 246.122 282.692 246.237 282.115L244.162 281.7ZM243.636 281.73C243.03 281.77 242.341 281.596 241.544 281.098L240.422 282.893C241.499 283.566 242.625 283.919 243.776 283.842L243.636 281.73ZM241.49 281.067C236.826 278.518 233.189 272.969 230.76 264.06L228.718 264.617C231.207 273.746 235.067 279.968 240.475 282.924L241.49 281.067ZM230.761 264.064C229.552 259.573 228.952 255.303 228.952 251.25H226.836C226.836 255.513 227.466 259.968 228.717 264.614L230.761 264.064ZM228.952 251.25C228.952 240.611 231.473 225.43 236.561 205.66L234.512 205.132C229.411 224.95 226.836 240.339 226.836 251.25H228.952ZM236.563 205.655L238.671 197.31L236.619 196.792L234.51 205.137L236.563 205.655ZM237.529 195.999L223.123 197.58L223.354 199.684L237.76 198.103L237.529 195.999ZM222.212 198.375C218.728 212.311 215.919 223.248 213.784 231.189C211.64 239.16 210.193 244.046 209.432 245.935L211.395 246.727C212.215 244.692 213.696 239.666 215.827 231.738C217.967 223.78 220.78 212.829 224.265 198.889L222.212 198.375ZM209.432 245.935C207.86 249.836 206.384 253.046 205.004 255.575L206.862 256.588C208.294 253.964 209.804 250.673 211.395 246.727L209.432 245.935ZM205.004 255.575C203.679 258.004 201.464 260.603 198.298 263.366L199.69 264.96C202.966 262.101 205.376 259.313 206.862 256.588L205.004 255.575ZM198.291 263.372C196.733 264.756 195.427 265.756 194.363 266.397C193.264 267.059 192.566 267.25 192.186 267.234L192.098 269.349C193.123 269.392 194.27 268.924 195.455 268.21C196.675 267.475 198.092 266.381 199.697 264.954L198.291 263.372ZM192.186 267.234C191.524 267.207 191.132 267.126 190.932 267.046C190.838 267.008 190.841 266.992 190.878 267.03C190.928 267.083 190.985 267.178 190.998 267.296L188.894 267.53C188.986 268.354 189.613 268.798 190.146 269.011C190.678 269.224 191.354 269.318 192.098 269.349L192.186 267.234ZM191.004 267.413C191.004 267.363 191.027 267.191 191.176 266.855C191.319 266.533 191.549 266.126 191.881 265.629L190.119 264.455C189.749 265.011 189.451 265.526 189.242 265.995C189.04 266.45 188.888 266.937 188.888 267.413H191.004ZM191.885 265.623C199.833 253.522 206.222 236.221 211.096 213.79L209.028 213.341C204.18 235.652 197.862 252.668 190.115 264.461L191.885 265.623ZM211.09 213.818L214.603 199.499L212.548 198.995L209.034 213.313L211.09 213.818ZM213.576 198.189H213.312V200.305H213.576V198.189ZM213.312 198.189C207.284 198.189 202.521 198.145 199.02 198.057C195.484 197.969 193.315 197.837 192.414 197.678L192.046 199.762C193.135 199.954 195.476 200.086 198.967 200.173C202.494 200.261 207.277 200.305 213.312 200.305V198.189ZM192.419 197.679C190.634 197.354 189.652 196.719 189.172 195.959L187.382 197.089C188.307 198.554 189.961 199.383 192.04 199.761L192.419 197.679ZM189.184 195.979C188.509 194.855 188.23 194.059 188.19 193.544L186.08 193.706C186.157 194.714 186.639 195.851 187.369 197.068L189.184 195.979ZM188.193 193.625C188.193 193.43 188.244 193.373 188.28 193.339C188.346 193.277 188.53 193.159 188.969 193.089L188.639 190.999C187.965 191.105 187.315 191.338 186.824 191.803C186.304 192.296 186.077 192.942 186.077 193.625H188.193ZM188.804 193.102C188.943 193.102 189.109 193.091 189.28 193.049C189.445 193.007 189.69 192.918 189.904 192.704L188.407 191.208C188.562 191.053 188.719 191.007 188.767 190.995C188.821 190.982 188.841 190.986 188.804 190.986V193.102ZM189.249 193.01L216.041 190.638L215.854 188.53L189.062 190.902L189.249 193.01ZM216.975 189.837L225.847 153.822L223.792 153.315L214.92 189.331L216.975 189.837ZM225.842 153.841C226.089 152.915 226.388 151.442 226.74 149.448L224.656 149.08C224.305 151.069 224.019 152.465 223.797 153.296L225.842 153.841ZM226.735 149.478C227.13 147.555 227.71 146.515 228.292 146.05L226.97 144.397C225.795 145.337 225.086 146.991 224.662 149.051L226.735 149.478ZM228.292 146.05C228.532 145.858 229.02 145.636 229.89 145.473C230.739 145.314 231.854 145.228 233.253 145.228V143.111C231.782 143.111 230.525 143.201 229.5 143.393C228.496 143.581 227.608 143.886 226.97 144.397L228.292 146.05ZM233.18 145.225C233.894 145.274 234.276 145.456 234.477 145.637C234.656 145.797 234.81 146.064 234.83 146.583L236.945 146.499C236.908 145.554 236.593 144.693 235.893 144.064C235.215 143.454 234.31 143.181 233.325 143.114L233.18 145.225ZM234.83 146.541C234.83 147.166 234.8 147.595 234.756 147.86L236.844 148.208C236.917 147.771 236.946 147.205 236.946 146.541H234.83ZM234.773 147.778L224.583 188.625L226.637 189.138L236.827 148.291L234.773 147.778ZM225.667 189.938C232.225 189.587 237.02 189.353 240.057 189.236L239.976 187.121C236.922 187.239 232.113 187.473 225.554 187.825L225.667 189.938ZM241.041 188.443L251.582 147.596L249.533 147.067L238.992 187.914L241.041 188.443ZM251.58 147.604C251.831 146.663 252.102 145.176 252.395 143.181L250.301 142.873C250.009 144.86 249.753 146.244 249.535 147.059L251.58 147.604ZM252.391 143.206C252.734 141.21 253.292 140.227 253.819 139.84L252.567 138.133C251.338 139.035 250.666 140.746 250.305 142.849L252.391 143.206ZM253.828 139.833C254.105 139.626 254.634 139.401 255.534 139.237C256.416 139.077 257.562 138.991 258.991 138.991V136.874C257.491 136.874 256.207 136.964 255.156 137.155C254.124 137.342 253.218 137.645 252.558 138.14L253.828 139.833ZM258.918 138.988C259.615 139.036 259.987 139.224 260.188 139.418C260.378 139.602 260.546 139.918 260.568 140.519L262.683 140.441C262.647 139.461 262.347 138.562 261.659 137.896C260.981 137.241 260.064 136.946 259.063 136.877L258.918 138.988ZM260.568 140.48C260.568 141.039 260.539 141.442 260.494 141.711L262.582 142.059C262.654 141.626 262.684 141.092 262.684 140.48H260.568ZM273.748 204.957H272.69V206.186L273.905 206.003L273.748 204.957ZM286.661 184.577L287.586 184.063L286.905 182.837L285.913 183.829L286.661 184.577ZM279.282 194.591L278.408 193.996L278.403 194.002L279.282 194.591ZM308.71 218.045L307.933 217.326L307.896 217.367L307.863 217.411L308.71 218.045ZM313.629 216.376H314.687V216.286L314.672 216.198L313.629 216.376ZM312.224 220.154L313.155 220.655L313.157 220.652L312.224 220.154ZM299.047 237.107L298.295 236.363L298.294 236.364L299.047 237.107ZM265.491 248.439L264.821 249.258L264.828 249.264L265.491 248.439ZM263.471 207.241L262.469 206.901L262.467 206.904L263.471 207.241ZM278.228 181.503L279.03 182.194L279.046 182.174L279.062 182.154L278.228 181.503ZM292.108 176.847L292.508 175.868L292.501 175.865L292.495 175.862L292.108 176.847ZM297.378 187.037L298.322 187.515L298.365 187.431L298.392 187.341L297.378 187.037ZM285.783 203.463L284.98 202.774L285.783 203.463ZM269.532 218.309L268.943 217.43L268.616 217.649L268.512 218.028L269.532 218.309ZM266.984 241.5L265.941 241.674L265.945 241.698L265.95 241.721L266.984 241.5ZM284.641 240.533L285.246 241.401L285.254 241.396L284.641 240.533ZM298.871 228.06L298.115 227.32L298.871 228.06ZM307.392 219.363L306.677 218.583L306.66 218.599L306.644 218.615L307.392 219.363ZM273.905 206.003C274.461 205.92 275.01 205.601 275.503 205.241C276.026 204.859 276.614 204.334 277.264 203.685C278.564 202.384 280.189 200.503 282.131 198.061L280.475 196.744C278.552 199.162 276.985 200.971 275.767 202.188C275.157 202.798 274.655 203.239 274.255 203.531C274.056 203.677 273.897 203.774 273.774 203.836C273.647 203.901 273.59 203.91 273.591 203.91L273.905 206.003ZM282.131 198.061C284.09 195.598 285.585 193.369 286.595 191.381C287.599 189.403 288.159 187.592 288.159 185.983H286.042C286.042 187.126 285.636 188.594 284.707 190.423C283.784 192.241 282.381 194.346 280.475 196.744L282.131 198.061ZM288.159 185.983C288.159 185.328 287.928 184.679 287.586 184.063L285.736 185.091C285.98 185.53 286.042 185.818 286.042 185.983H288.159ZM285.913 183.829C284.655 185.087 282.134 188.522 278.408 193.996L280.157 195.187C283.927 189.651 286.325 186.41 287.41 185.325L285.913 183.829ZM278.403 194.002C276.55 196.767 275.145 199.04 274.198 200.813C273.725 201.699 273.357 202.478 273.105 203.143C272.861 203.786 272.69 204.41 272.69 204.957H274.807C274.807 204.8 274.867 204.466 275.084 203.894C275.292 203.344 275.616 202.652 276.065 201.81C276.964 200.127 278.325 197.921 280.162 195.18L278.403 194.002ZM309.486 218.764C310.199 217.995 310.813 217.406 311.333 216.983C311.864 216.55 312.24 216.338 312.476 216.259C312.696 216.184 312.62 216.273 312.489 216.174C312.416 216.12 312.515 216.142 312.586 216.555L314.672 216.198C314.567 215.586 314.33 214.909 313.759 214.481C313.13 214.009 312.396 214.051 311.796 214.254C311.211 214.453 310.606 214.845 309.996 215.342C309.374 215.849 308.685 216.515 307.933 217.326L309.486 218.764ZM312.571 216.376C312.571 216.57 312.505 216.935 312.286 217.523C312.074 218.092 311.746 218.801 311.29 219.656L313.157 220.652C313.639 219.749 314.013 218.95 314.27 218.261C314.519 217.589 314.687 216.945 314.687 216.376H312.571ZM311.292 219.652C308.485 224.865 304.164 230.436 298.295 236.363L299.799 237.852C305.76 231.832 310.223 226.101 313.155 220.655L311.292 219.652ZM298.294 236.364C288.97 245.804 280.947 250.28 274.188 250.28V252.396C281.835 252.396 290.384 247.385 299.8 237.851L298.294 236.364ZM274.188 250.28C271.006 250.28 268.348 249.38 266.155 247.615L264.828 249.264C267.436 251.363 270.576 252.396 274.188 252.396V250.28ZM266.161 247.62C262.01 244.223 259.785 238.201 259.785 229.202H257.669C257.669 238.474 259.954 245.276 264.821 249.258L266.161 247.62ZM259.785 229.202C259.785 224.165 261.321 216.977 264.474 207.577L262.467 206.904C259.295 216.361 257.669 223.814 257.669 229.202H259.785ZM264.473 207.581C267.649 198.224 272.5 189.764 279.03 182.194L277.427 180.811C270.722 188.585 265.734 197.283 262.469 206.901L264.473 207.581ZM279.062 182.154C281.894 178.53 284.665 176.939 287.364 176.939V174.822C283.738 174.822 280.419 176.979 277.394 180.851L279.062 182.154ZM287.364 176.939C288.735 176.939 290.185 177.229 291.721 177.832L292.495 175.862C290.751 175.177 289.038 174.822 287.364 174.822V176.939ZM291.707 177.826C293.517 178.567 294.791 179.5 295.613 180.583C296.425 181.654 296.847 182.939 296.847 184.489H298.963C298.963 182.526 298.419 180.78 297.299 179.304C296.188 177.84 294.564 176.708 292.508 175.868L291.707 177.826ZM296.847 184.489C296.847 184.847 296.715 185.565 296.365 186.733L298.392 187.341C298.744 186.166 298.963 185.186 298.963 184.489H296.847ZM296.434 186.559C294.086 191.197 290.28 196.6 284.98 202.774L286.586 204.153C291.944 197.911 295.868 192.363 298.322 187.515L296.434 186.559ZM284.98 202.774C279.699 208.925 274.352 213.805 268.943 217.43L270.121 219.188C275.721 215.435 281.208 210.417 286.586 204.153L284.98 202.774ZM268.512 218.028C266.63 224.849 265.663 230.258 265.663 234.209H267.779C267.779 230.546 268.686 225.356 270.552 218.59L268.512 218.028ZM265.663 234.209C265.663 237.989 265.747 240.515 265.941 241.674L268.028 241.326C267.87 240.376 267.779 238.041 267.779 234.209H265.663ZM265.95 241.721C266.267 243.204 267.044 244.383 268.289 245.163C269.5 245.922 271.06 246.247 272.87 246.247V244.131C271.283 244.131 270.164 243.841 269.413 243.37C268.697 242.921 268.228 242.255 268.019 241.278L265.95 241.721ZM272.87 246.247C276.577 246.247 280.715 244.561 285.246 241.401L284.036 239.665C279.665 242.713 275.956 244.131 272.87 244.131V246.247ZM285.254 241.396C289.769 238.188 294.561 233.985 299.628 228.799L298.115 227.32C293.109 232.442 288.414 236.554 284.028 239.671L285.254 241.396ZM299.628 228.799C304.668 223.642 307.502 220.75 308.141 220.111L306.644 218.615C305.994 219.265 303.148 222.17 298.115 227.32L299.628 228.799ZM308.107 220.143C308.793 219.514 309.311 219.008 309.557 218.68L307.863 217.411C307.758 217.551 307.397 217.923 306.677 218.583L308.107 220.143ZM310.203 267.15L309.23 267.565L309.231 267.567L310.203 267.15ZM336.468 274.441L335.841 273.589L335.832 273.595L335.824 273.601L336.468 274.441ZM348.239 262.231L349.068 262.889L349.076 262.878L348.239 262.231ZM352.632 260.386L352.252 261.374L352.268 261.38L352.285 261.386L352.632 260.386ZM345.077 278.13L344.534 277.222L344.53 277.224L345.077 278.13ZM305.284 224.546L306.284 224.891L306.284 224.891L305.284 224.546ZM306.162 221.998L305.163 221.65L305.162 221.653L306.162 221.998ZM331.637 158.839L332.559 159.358L332.566 159.346L331.637 158.839ZM345.341 147.244L345.349 146.186H345.341V147.244ZM355.97 154.798H357.028V154.786L357.028 154.773L355.97 154.798ZM349.733 169.556L350.631 170.115L350.633 170.112L349.733 169.556ZM324.697 204.605L325.49 205.307L325.518 205.275L325.544 205.241L324.697 204.605ZM316.264 216.728L315.335 216.221L315.33 216.231L316.264 216.728ZM323.555 194.767L322.807 195.515L323.147 195.855L323.626 195.823L323.555 194.767ZM335.678 175.793L334.76 175.266L334.759 175.267L335.678 175.793ZM346.483 156.204L345.432 156.335L345.434 156.344L345.435 156.353L346.483 156.204ZM345.78 155.501L345.63 156.549L345.705 156.559H345.78V155.501ZM344.989 155.589L345.538 156.494L345.647 156.428L345.737 156.337L344.989 155.589ZM332.691 174.3L331.766 173.786L331.765 173.788L332.691 174.3ZM306.334 253.446C306.334 258.334 307.3 263.043 309.23 267.565L311.177 266.735C309.358 262.473 308.451 258.046 308.451 253.446H306.334ZM309.231 267.567C310.858 271.365 312.913 274.297 315.434 276.282C317.971 278.28 320.927 279.276 324.258 279.276V277.16C321.381 277.16 318.891 276.311 316.743 274.62C314.58 272.916 312.711 270.314 311.176 266.733L309.231 267.567ZM324.258 279.276C329.309 279.276 333.617 277.964 337.113 275.28L335.824 273.601C332.76 275.954 328.928 277.16 324.258 277.16V279.276ZM337.096 275.293C340.545 272.751 344.537 268.596 349.068 262.889L347.411 261.573C342.923 267.226 339.067 271.211 335.841 273.589L337.096 275.293ZM349.076 262.878C349.714 262.055 350.296 261.596 350.801 261.384C351.274 261.185 351.738 261.176 352.252 261.374L353.011 259.398C352.003 259.01 350.973 259.016 349.982 259.432C349.023 259.835 348.17 260.591 347.403 261.583L349.076 262.878ZM352.285 261.386C352.852 261.582 353.215 261.877 353.451 262.248C353.695 262.633 353.857 263.189 353.857 263.987H355.974C355.974 262.912 355.756 261.931 355.238 261.115C354.712 260.286 353.933 259.717 352.978 259.386L352.285 261.386ZM353.857 263.987C353.857 268.983 350.911 273.407 344.534 277.222L345.62 279.038C352.36 275.006 355.974 270.001 355.974 263.987H353.857ZM344.53 277.224C338.149 281.076 332.129 282.957 326.454 282.957V285.074C332.609 285.074 339.004 283.032 345.624 279.036L344.53 277.224ZM326.454 282.957C317.914 282.957 311.685 280.438 307.564 275.559C303.414 270.645 301.247 263.161 301.247 252.919H299.131C299.131 263.408 301.342 271.472 305.947 276.924C310.581 282.411 317.485 285.074 326.454 285.074V282.957ZM301.247 252.919C301.247 243.975 302.921 234.635 306.284 224.891L304.284 224.201C300.854 234.134 299.131 243.709 299.131 252.919H301.247ZM306.284 224.891L307.163 222.343L305.162 221.653L304.284 224.201L306.284 224.891ZM307.162 222.347C318.116 190.95 326.58 169.982 332.559 159.358L330.715 158.32C324.63 169.13 316.112 190.269 305.163 221.65L307.162 222.347ZM332.566 159.346C336.746 151.683 341.042 148.302 345.341 148.302V146.186C339.8 146.186 334.961 150.535 330.708 158.332L332.566 159.346ZM345.332 148.302C348.719 148.331 351.094 148.96 352.611 150.039C354.069 151.075 354.86 152.613 354.912 154.823L357.028 154.773C356.962 152.006 355.923 149.796 353.838 148.314C351.812 146.874 348.931 146.216 345.349 146.186L345.332 148.302ZM354.911 154.798C354.911 156.142 354.454 157.994 353.436 160.404C352.425 162.796 350.895 165.659 348.832 169L350.633 170.112C352.728 166.718 354.317 163.755 355.385 161.228C356.446 158.718 357.028 156.559 357.028 154.798H354.911ZM348.834 168.997C344.704 175.628 336.385 187.277 323.851 203.97L325.544 205.241C338.074 188.553 346.445 176.836 350.631 170.115L348.834 168.997ZM323.905 203.904C320.686 207.54 317.83 211.647 315.335 216.221L317.193 217.235C319.618 212.79 322.384 208.815 325.49 205.307L323.905 203.904ZM315.33 216.231C309.329 227.52 306.334 239.932 306.334 253.446H308.451C308.451 240.257 311.37 228.189 317.199 217.225L315.33 216.231ZM323.626 195.823C323.953 195.801 324.206 195.655 324.341 195.565C324.496 195.462 324.641 195.336 324.771 195.21C325.033 194.955 325.326 194.609 325.645 194.194C326.289 193.359 327.121 192.138 328.137 190.549C330.171 187.365 332.993 182.618 336.596 176.318L334.759 175.267C331.16 181.559 328.359 186.27 326.353 189.41C325.348 190.983 324.555 192.142 323.969 192.902C323.674 193.286 323.451 193.541 323.295 193.693C323.258 193.729 323.228 193.756 323.206 193.774C323.183 193.793 323.173 193.8 323.174 193.8C323.175 193.799 323.18 193.796 323.19 193.79C323.2 193.785 323.216 193.776 323.239 193.767C323.28 193.75 323.365 193.719 323.485 193.711L323.626 195.823ZM336.596 176.32C340.227 169.994 342.947 165.193 344.752 161.92C345.654 160.285 346.332 159.023 346.783 158.14C347.007 157.701 347.182 157.342 347.301 157.072C347.36 156.939 347.413 156.809 347.453 156.693C347.472 156.635 347.495 156.562 347.512 156.482C347.523 156.429 347.559 156.259 347.53 156.054L345.435 156.353C345.409 156.174 345.442 156.041 345.443 156.038C345.449 156.008 345.454 155.996 345.449 156.012C345.438 156.043 345.413 156.107 345.365 156.217C345.27 156.432 345.116 156.75 344.898 157.178C344.463 158.03 343.798 159.268 342.899 160.897C341.102 164.154 338.39 168.943 334.76 175.266L336.596 176.32ZM347.533 156.073C347.486 155.701 347.353 155.27 347.011 154.928C346.651 154.568 346.195 154.443 345.78 154.443V156.559C345.782 156.559 345.748 156.56 345.693 156.54C345.633 156.518 345.569 156.48 345.515 156.425C345.408 156.318 345.42 156.238 345.432 156.335L347.533 156.073ZM345.929 154.453C345.68 154.418 345.413 154.399 345.158 154.427C344.921 154.454 344.545 154.537 344.241 154.841L345.737 156.337C345.641 156.434 345.544 156.482 345.484 156.505C345.454 156.517 345.431 156.523 345.416 156.526C345.401 156.53 345.392 156.531 345.392 156.531C345.391 156.531 345.41 156.529 345.454 156.531C345.497 156.533 345.555 156.538 345.63 156.549L345.929 154.453ZM344.441 154.684C343.792 155.077 343.078 155.81 342.313 156.749C341.527 157.714 340.616 158.989 339.581 160.564C337.51 163.715 334.904 168.126 331.766 173.786L333.617 174.813C336.745 169.171 339.321 164.812 341.35 161.726C342.364 160.182 343.232 158.973 343.954 158.085C344.697 157.172 345.22 156.686 345.538 156.494L344.441 154.684ZM331.765 173.788C328.656 179.418 326.315 183.923 324.748 187.293C323.965 188.978 323.368 190.395 322.964 191.538C322.572 192.645 322.321 193.606 322.321 194.328H324.438C324.438 193.996 324.575 193.331 324.959 192.243C325.332 191.189 325.898 189.839 326.667 188.186C328.204 184.88 330.518 180.425 333.618 174.811L331.765 173.788ZM322.321 194.328C322.321 194.765 322.479 195.187 322.807 195.515L324.304 194.019C324.341 194.056 324.38 194.11 324.406 194.176C324.432 194.242 324.438 194.296 324.438 194.328H322.321ZM347.097 267.15L346.124 267.565L346.125 267.567L347.097 267.15ZM373.363 274.441L372.735 273.589L372.726 273.595L372.718 273.601L373.363 274.441ZM385.134 262.231L385.962 262.889L385.97 262.878L385.134 262.231ZM389.526 260.386L389.146 261.374L389.163 261.38L389.18 261.386L389.526 260.386ZM381.971 278.13L381.428 277.222L381.424 277.224L381.971 278.13ZM342.178 224.546L343.179 224.891L343.179 224.891L342.178 224.546ZM343.057 221.998L342.057 221.65L342.056 221.653L343.057 221.998ZM368.531 158.839L369.453 159.358L369.46 159.346L368.531 158.839ZM382.235 147.244L382.244 146.186H382.235V147.244ZM392.864 154.798H393.922V154.786L393.922 154.773L392.864 154.798ZM386.627 169.556L387.525 170.115L387.527 170.112L386.627 169.556ZM361.592 204.605L362.384 205.307L362.412 205.275L362.438 205.241L361.592 204.605ZM353.159 216.728L352.229 216.221L352.224 216.231L353.159 216.728ZM360.45 194.767L359.701 195.515L360.041 195.855L360.52 195.823L360.45 194.767ZM372.572 175.793L371.654 175.266L371.653 175.267L372.572 175.793ZM383.377 156.204L382.327 156.335L382.328 156.344L382.329 156.353L383.377 156.204ZM382.674 155.501L382.524 156.549L382.599 156.559H382.674V155.501ZM381.883 155.589L382.432 156.494L382.541 156.428L382.632 156.337L381.883 155.589ZM369.585 174.3L368.66 173.786L368.659 173.788L369.585 174.3ZM343.228 253.446C343.228 258.334 344.194 263.043 346.124 267.565L348.071 266.735C346.252 262.473 345.345 258.046 345.345 253.446H343.228ZM346.125 267.567C347.752 271.365 349.807 274.297 352.328 276.282C354.865 278.28 357.822 279.276 361.152 279.276V277.16C358.276 277.16 355.785 276.311 353.638 274.62C351.474 272.916 349.605 270.314 348.07 266.733L346.125 267.567ZM361.152 279.276C366.204 279.276 370.512 277.964 374.007 275.28L372.718 273.601C369.654 275.954 365.822 277.16 361.152 277.16V279.276ZM373.99 275.293C377.44 272.751 381.431 268.596 385.962 262.889L384.305 261.573C379.817 267.226 375.962 271.211 372.735 273.589L373.99 275.293ZM385.97 262.878C386.608 262.055 387.19 261.596 387.695 261.384C388.168 261.185 388.632 261.176 389.146 261.374L389.906 259.398C388.897 259.01 387.867 259.016 386.876 259.432C385.917 259.835 385.065 260.591 384.297 261.583L385.97 262.878ZM389.18 261.386C389.746 261.582 390.109 261.877 390.345 262.248C390.589 262.633 390.751 263.189 390.751 263.987H392.868C392.868 262.912 392.65 261.931 392.132 261.115C391.606 260.286 390.828 259.717 389.872 259.386L389.18 261.386ZM390.751 263.987C390.751 268.983 387.806 273.407 381.428 277.222L382.514 279.038C389.255 275.006 392.868 270.001 392.868 263.987H390.751ZM381.424 277.224C375.043 281.076 369.023 282.957 363.348 282.957V285.074C369.503 285.074 375.899 283.032 382.518 279.036L381.424 277.224ZM363.348 282.957C354.808 282.957 348.579 280.438 344.458 275.559C340.308 270.645 338.142 263.161 338.142 252.919H336.025C336.025 263.408 338.236 271.472 342.841 276.924C347.475 282.411 354.379 285.074 363.348 285.074V282.957ZM338.142 252.919C338.142 243.975 339.815 234.635 343.179 224.891L341.178 224.201C337.748 234.134 336.025 243.709 336.025 252.919H338.142ZM343.179 224.891L344.057 222.343L342.056 221.653L341.178 224.201L343.179 224.891ZM344.056 222.347C355.01 190.95 363.474 169.982 369.453 159.358L367.609 158.32C361.525 169.13 353.006 190.269 342.057 221.65L344.056 222.347ZM369.46 159.346C373.64 151.683 377.936 148.302 382.235 148.302V146.186C376.694 146.186 371.855 150.535 367.602 158.332L369.46 159.346ZM382.226 148.302C385.614 148.331 387.988 148.96 389.506 150.039C390.963 151.075 391.754 152.613 391.806 154.823L393.922 154.773C393.857 152.006 392.818 149.796 390.732 148.314C388.706 146.874 385.825 146.216 382.244 146.186L382.226 148.302ZM391.805 154.798C391.805 156.142 391.348 157.994 390.33 160.404C389.319 162.796 387.789 165.659 385.726 169L387.527 170.112C389.623 166.718 391.211 163.755 392.279 161.228C393.34 158.718 393.922 156.559 393.922 154.798H391.805ZM385.729 168.997C381.598 175.628 373.28 187.277 360.745 203.97L362.438 205.241C374.968 188.553 383.34 176.836 387.525 170.115L385.729 168.997ZM360.799 203.904C357.58 207.54 354.724 211.647 352.23 216.221L354.088 217.235C356.512 212.79 359.278 208.815 362.384 205.307L360.799 203.904ZM352.224 216.231C346.223 227.52 343.228 239.932 343.228 253.446H345.345C345.345 240.257 348.264 228.189 354.093 217.225L352.224 216.231ZM360.52 195.823C360.847 195.801 361.1 195.655 361.235 195.565C361.391 195.462 361.536 195.336 361.665 195.21C361.927 194.955 362.22 194.609 362.54 194.194C363.183 193.359 364.015 192.138 365.031 190.549C367.065 187.365 369.887 182.618 373.49 176.318L371.653 175.267C368.054 181.559 365.253 186.27 363.247 189.41C362.242 190.983 361.449 192.142 360.863 192.902C360.568 193.286 360.345 193.541 360.189 193.693C360.152 193.729 360.122 193.756 360.1 193.774C360.077 193.793 360.067 193.8 360.068 193.8C360.069 193.799 360.074 193.796 360.084 193.79C360.094 193.785 360.11 193.776 360.133 193.767C360.174 193.75 360.259 193.719 360.379 193.711L360.52 195.823ZM373.49 176.32C377.121 169.994 379.841 165.193 381.646 161.92C382.548 160.285 383.226 159.023 383.677 158.14C383.901 157.701 384.076 157.342 384.195 157.072C384.254 156.939 384.307 156.809 384.347 156.693C384.366 156.635 384.389 156.562 384.406 156.482C384.417 156.429 384.454 156.259 384.424 156.054L382.329 156.353C382.303 156.174 382.336 156.041 382.337 156.038C382.343 156.008 382.348 155.996 382.343 156.012C382.332 156.043 382.307 156.107 382.259 156.217C382.164 156.432 382.01 156.75 381.792 157.178C381.357 158.03 380.692 159.268 379.793 160.897C377.996 164.154 375.284 168.943 371.654 175.266L373.49 176.32ZM384.427 156.073C384.38 155.701 384.247 155.27 383.905 154.928C383.545 154.568 383.089 154.443 382.674 154.443V156.559C382.677 156.559 382.642 156.56 382.587 156.54C382.527 156.518 382.463 156.48 382.409 156.425C382.302 156.318 382.314 156.238 382.327 156.335L384.427 156.073ZM382.824 154.453C382.574 154.418 382.307 154.399 382.052 154.427C381.815 154.454 381.439 154.537 381.135 154.841L382.632 156.337C382.535 156.434 382.438 156.482 382.379 156.505C382.348 156.517 382.325 156.523 382.31 156.526C382.295 156.53 382.287 156.531 382.286 156.531C382.285 156.531 382.304 156.529 382.348 156.531C382.391 156.533 382.449 156.538 382.524 156.549L382.824 154.453ZM381.335 154.684C380.686 155.077 379.972 155.81 379.207 156.749C378.421 157.714 377.51 158.989 376.475 160.564C374.404 163.715 371.798 168.126 368.66 173.786L370.511 174.813C373.639 169.171 376.215 164.812 378.244 161.726C379.258 160.182 380.126 158.973 380.848 158.085C381.592 157.172 382.114 156.686 382.432 156.494L381.335 154.684ZM368.659 173.788C365.551 179.418 363.209 183.923 361.642 187.293C360.859 188.978 360.262 190.395 359.858 191.538C359.467 192.645 359.216 193.606 359.216 194.328H361.332C361.332 193.996 361.469 193.331 361.854 192.243C362.226 191.189 362.792 189.839 363.561 188.186C365.098 184.88 367.412 180.425 370.512 174.811L368.659 173.788ZM359.216 194.328C359.216 194.765 359.373 195.187 359.701 195.515L361.198 194.019C361.235 194.056 361.274 194.11 361.3 194.176C361.326 194.242 361.332 194.296 361.332 194.328H359.216ZM401.56 186.334L401.613 185.277L401.502 185.272L401.393 185.289L401.56 186.334ZM395.499 221.471L396.448 221.94L396.449 221.938L395.499 221.471ZM400.155 175.441V174.383H400.143L400.132 174.383L400.155 175.441ZM404.371 176.847L405.06 176.044L405.046 176.032L405.032 176.021L404.371 176.847ZM395.148 238.776L394.287 238.161L394.277 238.175L394.267 238.189L395.148 238.776ZM393.918 240.621L394.789 241.222L394.794 241.215L394.798 241.208L393.918 240.621ZM381.62 251.689L381.506 252.742L381.563 252.748H381.62V251.689ZM375.032 243.344H373.973V243.404L373.98 243.464L375.032 243.344ZM380.214 217.343L379.192 217.068L379.191 217.072L380.214 217.343ZM392.249 183.435L391.298 182.97L391.295 182.977L391.292 182.983L392.249 183.435ZM401.393 185.289C400.289 185.466 399.296 186.243 398.403 187.28C397.488 188.342 396.553 189.825 395.591 191.69C393.663 195.426 391.542 200.862 389.222 207.966L391.234 208.623C393.542 201.555 395.622 196.246 397.472 192.661C398.398 190.866 399.245 189.545 400.007 188.661C400.79 187.75 401.368 187.437 401.727 187.379L401.393 185.289ZM389.222 207.966C386.907 215.059 385.167 220.713 384.004 224.923C383.422 227.027 382.982 228.781 382.687 230.18C382.396 231.557 382.231 232.656 382.231 233.418H384.347C384.347 232.892 384.471 231.978 384.758 230.617C385.041 229.278 385.468 227.569 386.044 225.486C387.194 221.322 388.923 215.703 391.234 208.623L389.222 207.966ZM382.231 233.418C382.231 234.721 382.289 235.765 382.423 236.506C382.489 236.867 382.586 237.239 382.755 237.548C382.915 237.842 383.297 238.341 383.992 238.341V236.225C384.197 236.225 384.368 236.302 384.481 236.391C384.532 236.431 384.565 236.468 384.584 236.492C384.603 236.517 384.612 236.533 384.613 236.535C384.614 236.537 384.599 236.508 384.576 236.433C384.554 236.36 384.53 236.26 384.506 236.128C384.406 235.58 384.347 234.691 384.347 233.418H382.231ZM383.992 238.341C384.974 238.341 385.914 237.826 386.774 237.106C387.654 236.369 388.585 235.305 389.569 233.953C391.539 231.245 393.833 227.229 396.448 221.94L394.55 221.002C391.953 226.255 389.723 230.145 387.857 232.707C386.923 233.991 386.109 234.903 385.415 235.483C384.701 236.081 384.239 236.225 383.992 236.225V238.341ZM396.449 221.938C401.709 211.241 404.375 201.387 404.375 192.395H402.259C402.259 200.972 399.713 210.502 394.549 221.004L396.449 221.938ZM404.375 192.395C404.375 190.376 404.23 188.755 403.894 187.599C403.585 186.532 402.945 185.344 401.613 185.277L401.507 187.391C401.347 187.383 401.585 187.234 401.861 188.188C402.112 189.052 402.259 190.432 402.259 192.395H404.375ZM400.155 176.5C401.578 176.5 402.744 176.901 403.71 177.673L405.032 176.021C403.656 174.919 402.011 174.383 400.155 174.383V176.5ZM403.682 177.65C405.36 179.088 406.387 182.064 406.387 187.037H408.504C408.504 181.937 407.482 178.12 405.06 176.044L403.682 177.65ZM406.387 187.037C406.387 209.958 402.299 226.944 394.287 238.161L396.009 239.392C404.394 227.653 408.504 210.145 408.504 187.037H406.387ZM394.267 238.189L393.037 240.034L394.798 241.208L396.028 239.363L394.267 238.189ZM393.047 240.02C390.521 243.678 388.277 246.37 386.314 248.136C384.322 249.929 382.771 250.631 381.62 250.631V252.748C383.572 252.748 385.623 251.606 387.73 249.709C389.867 247.786 392.22 244.943 394.789 241.222L393.047 240.02ZM381.733 250.637C380.087 250.46 378.855 249.789 377.948 248.64C377.017 247.46 376.363 245.691 376.083 243.225L373.98 243.464C374.285 246.151 375.023 248.35 376.287 249.951C377.576 251.584 379.346 252.509 381.506 252.742L381.733 250.637ZM376.09 243.344C376.09 239.232 377.775 230.701 381.237 217.613L379.191 217.072C375.744 230.103 373.973 238.907 373.973 243.344H376.09ZM381.236 217.618C384.738 204.603 388.73 193.363 393.206 183.887L391.292 182.983C386.75 192.599 382.718 203.964 379.192 217.068L381.236 217.618ZM393.2 183.9C394.463 181.316 395.706 179.446 396.91 178.228C398.111 177.014 399.198 176.521 400.178 176.499L400.132 174.383C398.418 174.421 396.84 175.289 395.405 176.74C393.975 178.186 392.612 180.283 391.298 182.97L393.2 183.9Z" fill="black" mask="url(#path-3-outside-1_13_8)"/>
</g>
<g filter="url(#filter2_dd_13_8)">
<path d="M257.389 123.127L246.31 166.45H250.361C252.29 166.395 253.751 166.367 254.743 166.367C256.011 166.367 256.948 167.717 257.554 170.418C257.664 171.079 257.72 171.631 257.72 172.072C257.664 173.284 256.259 173.918 253.503 173.973C250.747 173.973 247.633 174.083 244.161 174.304L240.688 187.036C235.728 204.288 233.247 218.563 233.247 229.862C233.303 241.216 235.728 249.015 240.523 253.259C241.46 253.921 241.956 254.472 242.011 254.913C241.901 255.464 241.432 255.74 240.606 255.74C239.779 255.795 238.925 255.547 238.043 254.996C233.303 252.405 229.775 246.866 227.46 238.378C226.303 234.079 225.724 229.972 225.724 226.059C225.724 215.917 228.122 201.532 232.917 182.902L234.901 175.048L221.342 176.536C214.783 202.772 210.76 217.736 209.271 221.429C207.783 225.122 206.378 228.181 205.055 230.606C203.732 233.031 201.555 235.567 198.524 238.212C195.547 240.858 193.398 242.153 192.075 242.098C190.752 242.043 190.063 241.767 190.008 241.271C190.008 240.775 190.339 240.031 191 239.039C198.386 227.795 204.366 211.646 208.941 190.591L212.248 177.115H212C200.646 177.115 194.031 176.949 192.157 176.619C190.339 176.288 189.098 175.599 188.437 174.552C187.776 173.45 187.417 172.54 187.362 171.824C187.362 170.997 187.886 170.501 188.933 170.335C189.098 170.335 189.209 170.308 189.264 170.253L214.48 168.02L222.83 134.123C223.051 133.297 223.326 131.946 223.657 130.072C224.043 128.198 224.649 126.931 225.476 126.269C226.303 125.608 228.066 125.277 230.767 125.277C232.366 125.387 233.192 126.131 233.247 127.509C233.247 128.116 233.22 128.584 233.165 128.915L223.574 167.359C229.747 167.028 234.267 166.808 237.133 166.698L247.054 128.253C247.275 127.427 247.523 126.076 247.798 124.202C248.129 122.273 248.708 121.005 249.535 120.399C250.416 119.738 252.235 119.407 254.991 119.407C256.59 119.517 257.416 120.316 257.471 121.805C257.471 122.356 257.444 122.797 257.389 123.127ZM268.881 182.489C269.983 182.323 272.353 179.953 275.991 175.379C279.629 170.804 281.448 167.221 281.448 164.631C281.448 164.245 281.31 163.804 281.034 163.308C279.932 164.41 277.617 167.552 274.089 172.733C270.617 177.914 268.881 181.166 268.881 182.489ZM301.786 194.807C304.542 191.831 306.085 191.308 306.416 193.237C306.416 193.953 305.975 195.138 305.093 196.792C302.392 201.807 298.258 207.126 292.691 212.748C283.873 221.677 276.074 226.142 269.294 226.142C266.097 226.142 263.369 225.232 261.109 223.413C256.865 219.941 254.743 213.906 254.743 205.307C254.743 200.402 256.231 193.512 259.208 184.638C262.239 175.709 266.869 167.635 273.097 160.414C275.853 156.887 278.719 155.123 281.696 155.123C283.129 155.123 284.617 155.426 286.16 156.032C289.798 157.521 291.617 159.918 291.617 163.225C291.617 163.721 291.451 164.521 291.121 165.623C288.861 170.087 285.223 175.241 280.207 181.083C275.192 186.926 270.093 191.583 264.912 195.056C263.149 201.449 262.267 206.437 262.267 210.02C262.267 213.602 262.349 215.89 262.515 216.882C263.011 219.197 264.857 220.354 268.054 220.354C271.251 220.354 274.944 218.894 279.133 215.973C283.322 212.996 287.786 209.083 292.526 204.233C297.266 199.382 299.939 196.654 300.546 196.048C301.207 195.441 301.62 195.028 301.786 194.807ZM300.546 228.126C300.546 232.59 301.428 236.89 303.191 241.023C306.168 247.968 310.577 251.441 316.419 251.441C320.994 251.441 324.825 250.256 327.911 247.885C331.053 245.571 334.746 241.74 338.99 236.394C340.313 234.685 341.691 234.106 343.124 234.657C344.557 235.153 345.273 236.283 345.273 238.047C345.273 243.228 342.187 247.665 336.014 251.358C329.896 255.051 324.053 256.897 318.486 256.897C302.006 256.897 293.766 247.141 293.766 227.63C293.766 219.087 295.365 210.185 298.561 200.926L299.388 198.528C309.695 168.985 317.687 149.17 323.364 139.084C327.333 131.808 331.632 128.171 336.262 128.171C342.821 128.226 346.155 130.596 346.265 135.281C346.265 138.202 344.309 142.832 340.395 149.17C336.482 155.454 328.628 166.45 316.833 182.158C313.857 185.52 311.211 189.323 308.896 193.567C303.329 204.04 300.546 215.559 300.546 228.126ZM315.758 172.898C316.585 172.843 320.388 166.891 327.167 155.04C334.002 143.135 337.392 136.989 337.336 136.604C337.281 136.163 337.061 135.942 336.675 135.942C336.289 135.887 336.041 135.915 335.931 136.025C334.112 137.127 330.254 142.997 324.356 153.635C318.514 164.217 315.593 170.501 315.593 172.485C315.593 172.65 315.648 172.788 315.758 172.898ZM335.27 228.126C335.27 232.59 336.151 236.89 337.915 241.023C340.892 247.968 345.301 251.441 351.143 251.441C355.718 251.441 359.549 250.256 362.635 247.885C365.777 245.571 369.47 241.74 373.714 236.394C375.037 234.685 376.415 234.106 377.848 234.657C379.281 235.153 379.997 236.283 379.997 238.047C379.997 243.228 376.911 247.665 370.738 251.358C364.62 255.051 358.777 256.897 353.21 256.897C336.73 256.897 328.49 247.141 328.49 227.63C328.49 219.087 330.089 210.185 333.285 200.926L334.112 198.528C344.419 168.985 352.411 149.17 358.088 139.084C362.057 131.808 366.356 128.171 370.986 128.171C377.545 128.226 380.879 130.596 380.989 135.281C380.989 138.202 379.033 142.832 375.119 149.17C371.206 155.454 363.352 166.45 351.557 182.158C348.58 185.52 345.935 189.323 343.62 193.567C338.053 204.04 335.27 215.559 335.27 228.126ZM350.482 172.898C351.309 172.843 355.112 166.891 361.891 155.04C368.726 143.135 372.116 136.989 372.06 136.604C372.005 136.163 371.785 135.942 371.399 135.942C371.013 135.887 370.765 135.915 370.655 136.025C368.836 137.127 364.978 142.997 359.08 153.635C353.238 164.217 350.317 170.501 350.317 172.485C350.317 172.65 350.372 172.788 350.482 172.898ZM389.174 164.961C386.418 165.402 382.863 172.292 378.509 185.63C374.155 198.969 371.978 206.851 371.978 209.276C371.978 211.701 372.198 212.914 372.639 212.914C374.954 212.914 378.564 207.953 383.47 198.032C388.375 188.056 390.828 178.934 390.828 170.666C390.828 166.918 390.277 165.017 389.174 164.961ZM387.852 154.71C389.395 154.71 390.718 155.151 391.82 156.032C393.749 157.686 394.714 160.883 394.714 165.623C394.714 187.284 390.855 203.516 383.139 214.319L381.982 216.055C377.186 223 373.328 226.472 370.407 226.472C366.824 226.087 364.757 223.468 364.206 218.618C364.206 214.595 365.832 206.437 369.084 194.146C372.391 181.855 376.167 171.217 380.411 162.233C382.836 157.273 385.316 154.765 387.852 154.71Z" fill="white"/>
</g>
</g>
<defs>
<filter id="filter0_d_13_8" x="17" y="17" width="566" height="366" filterUnits="userSpaceOnUse" color-interpolation-filters="sRGB">
<feFlood flood-opacity="0" result="BackgroundImageFix"/>
<feColorMatrix in="SourceAlpha" type="matrix" values="0 0 0 0 0 0 0 0 0 0 0 0 0 0 0 0 0 0 127 0" result="hardAlpha"/>
<feMorphology radius="2" operator="dilate" in="SourceAlpha" result="effect1_dropShadow_13_8"/>
<feOffset/>
<feGaussianBlur stdDeviation="3"/>
<feComposite in2="hardAlpha" operator="out"/>
<feColorMatrix type="matrix" values="0 0 0 0 1 0 0 0 0 0.859166 0 0 0 0 0.859166 0 0 0 0.5 0"/>
<feBlend mode="normal" in2="BackgroundImageFix" result="effect1_dropShadow_13_8"/>
<feBlend mode="normal" in="SourceGraphic" in2="effect1_dropShadow_13_8" result="shape"/>
</filter>
<filter id="filter1_f_13_8" x="111.094" y="61.8919" width="372.392" height="298.164" filterUnits="userSpaceOnUse" color-interpolation-filters="sRGB">
<feFlood flood-opacity="0" result="BackgroundImageFix"/>
<feBlend mode="normal" in="SourceGraphic" in2="BackgroundImageFix" result="shape"/>
<feGaussianBlur stdDeviation="38.0203" result="effect1_foregroundBlur_13_8"/>
</filter>
<filter id="filter2_dd_13_8" x="124.925" y="56.9701" width="334.342" height="264.48" filterUnits="userSpaceOnUse" color-interpolation-filters="sRGB">
<feFlood flood-opacity="0" result="BackgroundImageFix"/>
<feColorMatrix in="SourceAlpha" type="matrix" values="0 0 0 0 0 0 0 0 0 0 0 0 0 0 0 0 0 0 127 0" result="hardAlpha"/>
<feOffset dx="1.05825" dy="1.05825"/>
<feGaussianBlur stdDeviation="31.7476"/>
<feComposite in2="hardAlpha" operator="out"/>
<feColorMatrix type="matrix" values="0 0 0 0 0.958333 0 0 0 0 0.12059 0 0 0 0 0.824294 0 0 0 1 0"/>
<feBlend mode="normal" in2="BackgroundImageFix" result="effect1_dropShadow_13_8"/>
<feColorMatrix in="SourceAlpha" type="matrix" values="0 0 0 0 0 0 0 0 0 0 0 0 0 0 0 0 0 0 127 0" result="hardAlpha"/>
<feOffset dy="4.23301"/>
<feGaussianBlur stdDeviation="2.1165"/>
<feComposite in2="hardAlpha" operator="out"/>
<feColorMatrix type="matrix" values="0 0 0 0 0 0 0 0 0 0 0 0 0 0 0 0 0 0 0.6 0"/>
<feBlend mode="normal" in2="effect1_dropShadow_13_8" result="effect2_dropShadow_13_8"/>
<feBlend mode="normal" in="SourceGraphic" in2="effect2_dropShadow_13_8" result="shape"/>
</filter>
<linearGradient id="paint0_linear_13_8" x1="116.5" y1="13" x2="523.5" y2="400" gradientUnits="userSpaceOnUse">
<stop offset="0.00485585" stop-color="#0A0222"/>
<stop offset="0.333333" stop-color="#191422"/>
<stop offset="0.666667" stop-color="#19161F"/>
<stop offset="1" stop-color="#25222B"/>
</linearGradient>
<clipPath id="clip0_13_8">
<rect width="600" height="400" fill="white"/>
</clipPath>
</defs>
</svg>
