<svg width="600" height="400" viewBox="0 0 600 400" fill="none" xmlns="http://www.w3.org/2000/svg">
<g clip-path="url(#clip0_15_30)">
<rect width="600" height="400" rx="30" fill="url(#paint0_linear_15_30)"/>
<g filter="url(#filter0_d_15_30)">
<rect x="25" y="25" width="550" height="350" rx="30" fill="#161616" fill-opacity="0.27" shape-rendering="crispEdges"/>
</g>
<g filter="url(#filter1_f_15_30)">
<mask id="path-3-outside-1_15_30" maskUnits="userSpaceOnUse" x="138" y="127" width="324" height="114" fill="black">
<rect fill="white" x="138" y="127" width="324" height="114"/>
<path d="M234.055 163.415H219.164V239H209.8V190.039H187.802C189.682 191.844 191.149 194.025 192.202 196.582C193.33 199.139 193.894 201.96 193.894 205.043C193.894 209.255 192.916 212.94 190.961 216.099C189.081 219.258 186.486 221.664 183.177 223.319C179.867 224.974 176.145 225.801 172.008 225.801C167.721 225.801 163.81 224.898 160.276 223.093C156.816 221.288 154.071 218.769 152.04 215.535C150.085 212.226 149.107 208.39 149.107 204.028C149.107 199.516 150.123 195.605 152.153 192.296C154.259 188.986 157.079 186.467 160.614 184.737C164.224 183.007 168.285 182.142 172.798 182.142H209.8V163.415H138.954V155.519H234.055V163.415ZM172.121 217.791C176.257 217.791 179.642 216.513 182.274 213.956C184.982 211.323 186.335 207.976 186.335 203.915C186.335 199.929 184.982 196.62 182.274 193.988C179.642 191.355 176.257 190.039 172.121 190.039C167.909 190.039 164.45 191.355 161.742 193.988C159.035 196.545 157.681 199.892 157.681 204.028C157.681 208.089 158.997 211.398 161.629 213.956C164.337 216.513 167.834 217.791 172.121 217.791ZM322.62 163.415H307.842V239H298.366V195.567H277.721V204.254C277.721 211.775 275.953 217.566 272.419 221.627C268.884 225.613 263.807 227.606 257.189 227.606C250.947 227.606 245.908 225.801 242.072 222.191C238.312 218.506 236.431 213.655 236.431 207.638C236.431 201.396 238.462 196.545 242.523 193.085C246.584 189.55 251.811 187.783 258.204 187.783H268.921V163.415H227.97V155.519H322.62V163.415ZM298.366 163.415H277.721V187.783H298.366V163.415ZM268.921 195.567H258.43C254.519 195.567 251.323 196.658 248.841 198.839C246.434 201.02 245.231 203.953 245.231 207.638C245.231 211.248 246.359 214.144 248.615 216.325C250.871 218.506 253.729 219.596 257.189 219.596C260.874 219.596 263.732 218.28 265.763 215.648C267.868 213.015 268.921 209.368 268.921 204.705V195.567ZM460.718 163.415H445.827V239H436.35V190.942H419.88C412.66 190.942 406.982 192.634 402.845 196.018C398.784 199.403 396.753 204.404 396.753 211.022C396.753 217.415 398.558 222.379 402.168 225.914C405.778 229.449 411.005 231.216 417.849 231.216H420.331V238.774H416.608C407.658 238.774 400.514 236.405 395.174 231.667C389.909 226.854 387.277 219.935 387.277 210.91C387.277 206.773 387.916 203.013 389.195 199.628H338.316V216.099C338.316 220.912 339.407 224.748 341.588 227.606C343.769 230.464 347.04 231.893 351.402 231.893C355.389 231.893 358.547 230.577 360.879 227.944C363.21 225.237 364.376 221.702 364.376 217.34V215.986H373.401C373.476 216.513 373.514 217.114 373.514 217.791C373.514 224.56 371.521 229.975 367.535 234.036C363.624 238.022 358.284 240.015 351.515 240.015C344.295 240.015 338.73 237.797 334.819 233.359C330.983 228.847 329.066 222.943 329.066 215.648V192.634H339.444C345.762 192.634 350.575 190.942 353.884 187.557C357.194 184.173 358.848 179.548 358.848 173.681V163.415H316.656V155.519H460.718V163.415ZM436.35 163.415H368.099V173.681C368.099 177.592 367.497 181.089 366.294 184.173C365.09 187.257 363.398 189.814 361.217 191.844H393.933C396.716 188.836 400.288 186.58 404.65 185.076C409.012 183.571 413.938 182.819 419.429 182.819H436.35V163.415ZM436.763 155.97C432.852 149.803 429.656 145.365 427.174 142.658C424.617 139.875 422.172 138.07 419.841 137.243C417.51 136.416 414.313 136.002 410.252 136.002H405.514V128.331H410.139C415.629 128.331 419.991 128.895 423.225 130.023C426.459 131.151 429.769 133.633 433.153 137.469C436.537 141.304 440.711 147.471 445.675 155.97H436.763Z"/>
</mask>
<path d="M234.055 163.415H219.164V239H209.8V190.039H187.802C189.682 191.844 191.149 194.025 192.202 196.582C193.33 199.139 193.894 201.96 193.894 205.043C193.894 209.255 192.916 212.94 190.961 216.099C189.081 219.258 186.486 221.664 183.177 223.319C179.867 224.974 176.145 225.801 172.008 225.801C167.721 225.801 163.81 224.898 160.276 223.093C156.816 221.288 154.071 218.769 152.04 215.535C150.085 212.226 149.107 208.39 149.107 204.028C149.107 199.516 150.123 195.605 152.153 192.296C154.259 188.986 157.079 186.467 160.614 184.737C164.224 183.007 168.285 182.142 172.798 182.142H209.8V163.415H138.954V155.519H234.055V163.415ZM172.121 217.791C176.257 217.791 179.642 216.513 182.274 213.956C184.982 211.323 186.335 207.976 186.335 203.915C186.335 199.929 184.982 196.62 182.274 193.988C179.642 191.355 176.257 190.039 172.121 190.039C167.909 190.039 164.45 191.355 161.742 193.988C159.035 196.545 157.681 199.892 157.681 204.028C157.681 208.089 158.997 211.398 161.629 213.956C164.337 216.513 167.834 217.791 172.121 217.791ZM322.62 163.415H307.842V239H298.366V195.567H277.721V204.254C277.721 211.775 275.953 217.566 272.419 221.627C268.884 225.613 263.807 227.606 257.189 227.606C250.947 227.606 245.908 225.801 242.072 222.191C238.312 218.506 236.431 213.655 236.431 207.638C236.431 201.396 238.462 196.545 242.523 193.085C246.584 189.55 251.811 187.783 258.204 187.783H268.921V163.415H227.97V155.519H322.62V163.415ZM298.366 163.415H277.721V187.783H298.366V163.415ZM268.921 195.567H258.43C254.519 195.567 251.323 196.658 248.841 198.839C246.434 201.02 245.231 203.953 245.231 207.638C245.231 211.248 246.359 214.144 248.615 216.325C250.871 218.506 253.729 219.596 257.189 219.596C260.874 219.596 263.732 218.28 265.763 215.648C267.868 213.015 268.921 209.368 268.921 204.705V195.567ZM460.718 163.415H445.827V239H436.35V190.942H419.88C412.66 190.942 406.982 192.634 402.845 196.018C398.784 199.403 396.753 204.404 396.753 211.022C396.753 217.415 398.558 222.379 402.168 225.914C405.778 229.449 411.005 231.216 417.849 231.216H420.331V238.774H416.608C407.658 238.774 400.514 236.405 395.174 231.667C389.909 226.854 387.277 219.935 387.277 210.91C387.277 206.773 387.916 203.013 389.195 199.628H338.316V216.099C338.316 220.912 339.407 224.748 341.588 227.606C343.769 230.464 347.04 231.893 351.402 231.893C355.389 231.893 358.547 230.577 360.879 227.944C363.21 225.237 364.376 221.702 364.376 217.34V215.986H373.401C373.476 216.513 373.514 217.114 373.514 217.791C373.514 224.56 371.521 229.975 367.535 234.036C363.624 238.022 358.284 240.015 351.515 240.015C344.295 240.015 338.73 237.797 334.819 233.359C330.983 228.847 329.066 222.943 329.066 215.648V192.634H339.444C345.762 192.634 350.575 190.942 353.884 187.557C357.194 184.173 358.848 179.548 358.848 173.681V163.415H316.656V155.519H460.718V163.415ZM436.35 163.415H368.099V173.681C368.099 177.592 367.497 181.089 366.294 184.173C365.09 187.257 363.398 189.814 361.217 191.844H393.933C396.716 188.836 400.288 186.58 404.65 185.076C409.012 183.571 413.938 182.819 419.429 182.819H436.35V163.415ZM436.763 155.97C432.852 149.803 429.656 145.365 427.174 142.658C424.617 139.875 422.172 138.07 419.841 137.243C417.51 136.416 414.313 136.002 410.252 136.002H405.514V128.331H410.139C415.629 128.331 419.991 128.895 423.225 130.023C426.459 131.151 429.769 133.633 433.153 137.469C436.537 141.304 440.711 147.471 445.675 155.97H436.763Z" fill="#F41FD2"/>
<path d="M234.055 163.415V164.079H234.719V163.415H234.055ZM219.164 163.415V162.752H218.5V163.415H219.164ZM219.164 239V239.664H219.828V239H219.164ZM209.8 239H209.137V239.664H209.8V239ZM209.8 190.039H210.464V189.376H209.8V190.039ZM187.802 190.039V189.376H186.152L187.342 190.518L187.802 190.039ZM192.202 196.582L191.588 196.835L191.591 196.843L191.595 196.85L192.202 196.582ZM190.961 216.099L190.396 215.75L190.391 215.76L190.961 216.099ZM183.177 223.319L182.88 222.725L182.88 222.725L183.177 223.319ZM160.276 223.093L159.969 223.682L159.974 223.684L160.276 223.093ZM152.04 215.535L151.469 215.873L151.474 215.88L151.478 215.888L152.04 215.535ZM152.153 192.296L151.593 191.939L151.588 191.948L152.153 192.296ZM160.614 184.737L160.327 184.139L160.322 184.141L160.614 184.737ZM209.8 182.142V182.806H210.464V182.142H209.8ZM209.8 163.415H210.464V162.752H209.8V163.415ZM138.954 163.415H138.29V164.079H138.954V163.415ZM138.954 155.519V154.855H138.29V155.519H138.954ZM234.055 155.519H234.719V154.855H234.055V155.519ZM182.274 213.956L182.737 214.432L182.737 214.431L182.274 213.956ZM182.274 193.988L181.805 194.457L181.812 194.464L182.274 193.988ZM161.742 193.988L162.198 194.47L162.205 194.464L161.742 193.988ZM161.629 213.956L161.167 214.432L161.174 214.438L161.629 213.956ZM234.055 162.752H219.164V164.079H234.055V162.752ZM218.5 163.415V239H219.828V163.415H218.5ZM219.164 238.336H209.8V239.664H219.164V238.336ZM210.464 239V190.039H209.137V239H210.464ZM209.8 189.376H187.802V190.703H209.8V189.376ZM187.342 190.518C189.152 192.255 190.568 194.358 191.588 196.835L192.815 196.33C191.729 193.693 190.212 191.433 188.262 189.561L187.342 190.518ZM191.595 196.85C192.682 199.315 193.23 202.042 193.23 205.043H194.557C194.557 201.877 193.978 198.964 192.809 196.315L191.595 196.85ZM193.23 205.043C193.23 209.149 192.279 212.709 190.396 215.75L191.525 216.448C193.554 213.171 194.557 209.362 194.557 205.043H193.23ZM190.391 215.76C188.576 218.808 186.076 221.127 182.88 222.725L183.473 223.913C186.895 222.202 189.585 219.707 191.531 216.438L190.391 215.76ZM182.88 222.725C179.673 224.329 176.054 225.137 172.008 225.137V226.465C176.235 226.465 180.062 225.618 183.473 223.913L182.88 222.725ZM172.008 225.137C167.818 225.137 164.011 224.256 160.577 222.502L159.974 223.684C163.609 225.541 167.625 226.465 172.008 226.465V225.137ZM160.583 222.505C157.225 220.753 154.569 218.314 152.602 215.182L151.478 215.888C153.573 219.224 156.407 221.824 159.969 223.682L160.583 222.505ZM152.612 215.197C150.724 212.004 149.771 208.288 149.771 204.028H148.444C148.444 208.493 149.445 212.448 151.469 215.873L152.612 215.197ZM149.771 204.028C149.771 199.618 150.762 195.831 152.719 192.643L151.588 191.948C149.483 195.378 148.444 199.413 148.444 204.028H149.771ZM152.713 192.652C154.753 189.446 157.48 187.009 160.906 185.333L160.322 184.141C156.678 185.924 153.765 188.527 151.593 191.939L152.713 192.652ZM160.901 185.336C164.411 183.654 168.372 182.806 172.798 182.806V181.479C168.199 181.479 164.038 182.361 160.327 184.139L160.901 185.336ZM172.798 182.806H209.8V181.479H172.798V182.806ZM210.464 182.142V163.415H209.137V182.142H210.464ZM209.8 162.752H138.954V164.079H209.8V162.752ZM139.618 163.415V155.519H138.29V163.415H139.618ZM138.954 156.182H234.055V154.855H138.954V156.182ZM233.392 155.519V163.415H234.719V155.519H233.392ZM172.121 218.455C176.406 218.455 179.964 217.125 182.737 214.432L181.812 213.48C179.319 215.901 176.109 217.128 172.121 217.128V218.455ZM182.737 214.431C185.583 211.664 186.999 208.141 186.999 203.915H185.672C185.672 207.812 184.38 210.983 181.812 213.48L182.737 214.431ZM186.999 203.915C186.999 199.761 185.581 196.277 182.737 193.512L181.812 194.464C184.383 196.963 185.672 200.097 185.672 203.915H186.999ZM182.743 193.518C179.972 190.747 176.412 189.376 172.121 189.376V190.703C176.103 190.703 179.311 191.963 181.805 194.457L182.743 193.518ZM172.121 189.376C167.758 189.376 164.126 190.745 161.28 193.512L162.205 194.464C164.774 191.966 168.06 190.703 172.121 190.703V189.376ZM161.287 193.505C158.431 196.202 157.017 199.731 157.017 204.028H158.345C158.345 200.052 159.639 196.887 162.198 194.47L161.287 193.505ZM157.017 204.028C157.017 208.248 158.392 211.736 161.167 214.432L162.092 213.48C159.603 211.061 158.345 207.931 158.345 204.028H157.017ZM161.174 214.438C164.023 217.129 167.692 218.455 172.121 218.455V217.128C167.976 217.128 164.651 215.896 162.085 213.473L161.174 214.438ZM322.62 163.415V164.079H323.284V163.415H322.62ZM307.842 163.415V162.752H307.178V163.415H307.842ZM307.842 239V239.664H308.505V239H307.842ZM298.366 239H297.702V239.664H298.366V239ZM298.366 195.567H299.029V194.903H298.366V195.567ZM277.721 195.567V194.903H277.057V195.567H277.721ZM272.419 221.627L272.915 222.067L272.919 222.063L272.419 221.627ZM242.072 222.191L241.607 222.665L241.617 222.674L242.072 222.191ZM242.523 193.085L242.954 193.59L242.959 193.586L242.523 193.085ZM268.921 187.783V188.447H269.585V187.783H268.921ZM268.921 163.415H269.585V162.752H268.921V163.415ZM227.97 163.415H227.307V164.079H227.97V163.415ZM227.97 155.519V154.855H227.307V155.519H227.97ZM322.62 155.519H323.284V154.855H322.62V155.519ZM298.366 163.415H299.029V162.752H298.366V163.415ZM277.721 163.415V162.752H277.057V163.415H277.721ZM277.721 187.783H277.057V188.447H277.721V187.783ZM298.366 187.783V188.447H299.029V187.783H298.366ZM268.921 195.567H269.585V194.903H268.921V195.567ZM248.841 198.839L248.403 198.34L248.395 198.347L248.841 198.839ZM265.763 215.648L265.244 215.233L265.237 215.242L265.763 215.648ZM322.62 162.752H307.842V164.079H322.62V162.752ZM307.178 163.415V239H308.505V163.415H307.178ZM307.842 238.336H298.366V239.664H307.842V238.336ZM299.029 239V195.567H297.702V239H299.029ZM298.366 194.903H277.721V196.231H298.366V194.903ZM277.057 195.567V204.254H278.384V195.567H277.057ZM277.057 204.254C277.057 211.678 275.313 217.291 271.918 221.191L272.919 222.063C276.594 217.84 278.384 211.871 278.384 204.254H277.057ZM271.922 221.187C268.543 224.997 263.667 226.942 257.189 226.942V228.27C263.947 228.27 269.225 226.229 272.915 222.067L271.922 221.187ZM257.189 226.942C251.082 226.942 246.217 225.181 242.527 221.708L241.617 222.674C245.598 226.421 250.811 228.27 257.189 228.27V226.942ZM242.536 221.717C238.922 218.175 237.095 213.504 237.095 207.638H235.768C235.768 213.805 237.701 218.837 241.607 222.665L242.536 221.717ZM237.095 207.638C237.095 201.554 239.066 196.902 242.954 193.59L242.093 192.58C237.858 196.188 235.768 201.238 235.768 207.638H237.095ZM242.959 193.586C246.877 190.175 251.94 188.447 258.204 188.447V187.119C251.683 187.119 246.291 188.926 242.088 192.585L242.959 193.586ZM258.204 188.447H268.921V187.119H258.204V188.447ZM269.585 187.783V163.415H268.258V187.783H269.585ZM268.921 162.752H227.97V164.079H268.921V162.752ZM228.634 163.415V155.519H227.307V163.415H228.634ZM227.97 156.182H322.62V154.855H227.97V156.182ZM321.957 155.519V163.415H323.284V155.519H321.957ZM298.366 162.752H277.721V164.079H298.366V162.752ZM277.057 163.415V187.783H278.384V163.415H277.057ZM277.721 188.447H298.366V187.119H277.721V188.447ZM299.029 187.783V163.415H297.702V187.783H299.029ZM268.921 194.903H258.43V196.231H268.921V194.903ZM258.43 194.903C254.389 194.903 251.027 196.034 248.403 198.34L249.279 199.337C251.618 197.281 254.649 196.231 258.43 196.231V194.903ZM248.395 198.347C245.83 200.671 244.567 203.793 244.567 207.638H245.894C245.894 204.112 247.038 201.368 249.286 199.33L248.395 198.347ZM244.567 207.638C244.567 211.398 245.748 214.477 248.154 216.802L249.076 215.848C246.969 213.811 245.894 211.098 245.894 207.638H244.567ZM248.154 216.802C250.547 219.115 253.576 220.26 257.189 220.26V218.933C253.882 218.933 251.196 217.896 249.076 215.848L248.154 216.802ZM257.189 220.26C261.054 220.26 264.117 218.867 266.288 216.053L265.237 215.242C263.347 217.693 260.694 218.933 257.189 218.933V220.26ZM266.281 216.062C268.511 213.274 269.585 209.461 269.585 204.705H268.258C268.258 209.274 267.226 212.757 265.244 215.233L266.281 216.062ZM269.585 204.705V195.567H268.258V204.705H269.585ZM460.718 163.415V164.079H461.382V163.415H460.718ZM445.827 163.415V162.752H445.163V163.415H445.827ZM445.827 239V239.664H446.49V239H445.827ZM436.35 239H435.687V239.664H436.35V239ZM436.35 190.942H437.014V190.278H436.35V190.942ZM402.845 196.018L402.425 195.505L402.42 195.509L402.845 196.018ZM402.168 225.914L401.704 226.388L401.704 226.388L402.168 225.914ZM420.331 231.216H420.995V230.552H420.331V231.216ZM420.331 238.774V239.438H420.995V238.774H420.331ZM395.174 231.667L394.726 232.157L394.733 232.164L395.174 231.667ZM389.195 199.628L389.816 199.863L390.155 198.965H389.195V199.628ZM338.316 199.628V198.965H337.653V199.628H338.316ZM341.588 227.606L341.06 228.009L341.06 228.009L341.588 227.606ZM360.879 227.944L361.376 228.384L361.382 228.377L360.879 227.944ZM364.376 215.986V215.323H363.712V215.986H364.376ZM373.401 215.986L374.058 215.892L373.977 215.323H373.401V215.986ZM367.535 234.036L367.061 233.571L367.061 233.571L367.535 234.036ZM334.819 233.359L334.313 233.789L334.321 233.798L334.819 233.359ZM329.066 192.634V191.97H328.402V192.634H329.066ZM358.848 163.415H359.512V162.752H358.848V163.415ZM316.656 163.415H315.993V164.079H316.656V163.415ZM316.656 155.519V154.855H315.993V155.519H316.656ZM460.718 155.519H461.382V154.855H460.718V155.519ZM436.35 163.415H437.014V162.752H436.35V163.415ZM368.099 163.415V162.752H367.435V163.415H368.099ZM366.294 184.173L365.676 183.932L365.676 183.932L366.294 184.173ZM361.217 191.844L360.765 191.359L359.531 192.508H361.217V191.844ZM393.933 191.844V192.508H394.223L394.42 192.295L393.933 191.844ZM404.65 185.076L404.866 185.703L404.866 185.703L404.65 185.076ZM436.35 182.819V183.483H437.014V182.819H436.35ZM460.718 162.752H445.827V164.079H460.718V162.752ZM445.163 163.415V239H446.49V163.415H445.163ZM445.827 238.336H436.35V239.664H445.827V238.336ZM437.014 239V190.942H435.687V239H437.014ZM436.35 190.278H419.88V191.605H436.35V190.278ZM419.88 190.278C412.56 190.278 406.716 191.994 402.425 195.505L403.265 196.532C407.247 193.274 412.759 191.605 419.88 191.605V190.278ZM402.42 195.509C398.171 199.05 396.09 204.261 396.09 211.022H397.417C397.417 204.547 399.397 199.756 403.27 196.528L402.42 195.509ZM396.09 211.022C396.09 217.544 397.935 222.697 401.704 226.388L402.632 225.44C399.182 222.061 397.417 217.287 397.417 211.022H396.09ZM401.704 226.388C405.477 230.082 410.895 231.88 417.849 231.88V230.552C411.116 230.552 406.08 228.815 402.632 225.44L401.704 226.388ZM417.849 231.88H420.331V230.552H417.849V231.88ZM419.667 231.216V238.774H420.995V231.216H419.667ZM420.331 238.111H416.608V239.438H420.331V238.111ZM416.608 238.111C407.778 238.111 400.804 235.776 395.614 231.171L394.733 232.164C400.223 237.035 407.539 239.438 416.608 239.438V238.111ZM395.622 231.177C390.529 226.521 387.941 219.801 387.941 210.91H386.613C386.613 220.068 389.289 227.186 394.726 232.157L395.622 231.177ZM387.941 210.91C387.941 206.842 388.569 203.162 389.816 199.863L388.574 199.394C387.263 202.863 386.613 206.704 386.613 210.91H387.941ZM389.195 198.965H338.316V200.292H389.195V198.965ZM337.653 199.628V216.099H338.98V199.628H337.653ZM337.653 216.099C337.653 221.009 338.765 225.001 341.06 228.009L342.115 227.203C340.048 224.495 338.98 220.816 338.98 216.099H337.653ZM341.06 228.009C343.394 231.067 346.883 232.556 351.402 232.556V231.229C347.198 231.229 344.144 229.861 342.115 227.203L341.06 228.009ZM351.402 232.556C355.55 232.556 358.901 231.179 361.376 228.384L360.382 227.504C358.194 229.975 355.227 231.229 351.402 231.229V232.556ZM361.382 228.377C363.838 225.524 365.04 221.824 365.04 217.34H363.712C363.712 221.58 362.582 224.949 360.376 227.511L361.382 228.377ZM365.04 217.34V215.986H363.712V217.34H365.04ZM364.376 216.65H373.401V215.323H364.376V216.65ZM372.744 216.08C372.814 216.568 372.85 217.138 372.85 217.791H374.177C374.177 217.091 374.139 216.457 374.058 215.892L372.744 216.08ZM372.85 217.791C372.85 224.421 370.903 229.657 367.061 233.571L368.008 234.501C372.139 230.293 374.177 224.699 374.177 217.791H372.85ZM367.061 233.571C363.301 237.404 358.146 239.352 351.515 239.352V240.679C358.422 240.679 363.947 238.64 368.008 234.501L367.061 233.571ZM351.515 239.352C344.44 239.352 339.074 237.184 335.317 232.921L334.321 233.798C338.385 238.409 344.15 240.679 351.515 240.679V239.352ZM335.325 232.93C331.613 228.563 329.729 222.823 329.729 215.648H328.402C328.402 223.063 330.354 229.131 334.313 233.789L335.325 232.93ZM329.729 215.648V192.634H328.402V215.648H329.729ZM329.066 193.298H339.444V191.97H329.066V193.298ZM339.444 193.298C345.878 193.298 350.887 191.572 354.359 188.021L353.41 187.093C350.263 190.312 345.645 191.97 339.444 191.97V193.298ZM354.359 188.021C357.817 184.485 359.512 179.677 359.512 173.681H358.185C358.185 179.418 356.57 183.861 353.41 187.093L354.359 188.021ZM359.512 173.681V163.415H358.185V173.681H359.512ZM358.848 162.752H316.656V164.079H358.848V162.752ZM317.32 163.415V155.519H315.993V163.415H317.32ZM316.656 156.182H460.718V154.855H316.656V156.182ZM460.054 155.519V163.415H461.382V155.519H460.054ZM436.35 162.752H368.099V164.079H436.35V162.752ZM367.435 163.415V173.681H368.762V163.415H367.435ZM367.435 173.681C367.435 177.524 366.844 180.938 365.676 183.932L366.912 184.414C368.15 181.241 368.762 177.66 368.762 173.681H367.435ZM365.676 183.932C364.504 186.933 362.865 189.403 360.765 191.359L361.669 192.33C363.931 190.224 365.676 187.58 366.912 184.414L365.676 183.932ZM361.217 192.508H393.933V191.181H361.217V192.508ZM394.42 192.295C397.119 189.377 400.595 187.176 404.866 185.703L404.434 184.448C399.981 185.983 396.312 188.295 393.446 191.394L394.42 192.295ZM404.866 185.703C409.147 184.227 413.998 183.483 419.429 183.483V182.156C413.878 182.156 408.877 182.916 404.434 184.448L404.866 185.703ZM419.429 183.483H436.35V182.156H419.429V183.483ZM437.014 182.819V163.415H435.687V182.819H437.014ZM436.763 155.97L436.203 156.325L436.398 156.633H436.763V155.97ZM427.174 142.658L427.663 142.209L427.662 142.209L427.174 142.658ZM419.841 137.243L420.063 136.617L420.063 136.617L419.841 137.243ZM405.514 136.002H404.85V136.666H405.514V136.002ZM405.514 128.331V127.667H404.85V128.331H405.514ZM423.225 130.023L423.007 130.649L423.007 130.649L423.225 130.023ZM433.153 137.469L433.651 137.029L433.651 137.029L433.153 137.469ZM445.675 155.97V156.633H446.831L446.248 155.635L445.675 155.97ZM437.323 155.614C433.408 149.44 430.186 144.962 427.663 142.209L426.685 143.106C429.125 145.769 432.296 150.166 436.203 156.325L437.323 155.614ZM427.662 142.209C425.067 139.385 422.536 137.495 420.063 136.617L419.619 137.868C421.809 138.645 424.166 140.366 426.685 143.107L427.662 142.209ZM420.063 136.617C417.629 135.754 414.347 135.338 410.252 135.338V136.666C414.28 136.666 417.39 137.077 419.619 137.868L420.063 136.617ZM410.252 135.338H405.514V136.666H410.252V135.338ZM406.177 136.002V128.331H404.85V136.002H406.177ZM405.514 128.994H410.139V127.667H405.514V128.994ZM410.139 128.994C415.594 128.994 419.873 129.556 423.007 130.649L423.444 129.396C420.11 128.233 415.665 127.667 410.139 127.667V128.994ZM423.007 130.649C426.093 131.726 429.312 134.118 432.655 137.908L433.651 137.029C430.225 133.147 426.826 130.576 423.444 129.396L423.007 130.649ZM432.655 137.908C435.996 141.694 440.144 147.816 445.102 156.304L446.248 155.635C441.279 147.127 437.079 140.915 433.651 137.029L432.655 137.908ZM445.675 155.306H436.763V156.633H445.675V155.306Z" fill="black" mask="url(#path-3-outside-1_15_30)"/>
</g>
<g filter="url(#filter2_dd_15_30)">
<path d="M235.567 165.018H221.552V236.156H212.739V190.076H192.035C193.805 191.775 195.185 193.827 196.176 196.234C197.238 198.641 197.769 201.295 197.769 204.197C197.769 208.161 196.848 211.63 195.008 214.603C193.238 217.576 190.796 219.841 187.682 221.398C184.567 222.955 181.063 223.734 177.17 223.734C173.136 223.734 169.455 222.884 166.128 221.186C162.872 219.487 160.288 217.115 158.377 214.072C156.537 210.957 155.616 207.347 155.616 203.242C155.616 198.995 156.572 195.314 158.483 192.199C160.465 189.085 163.12 186.714 166.446 185.085C169.844 183.457 173.666 182.643 177.913 182.643H212.739V165.018H146.06V157.586H235.567V165.018ZM177.276 216.195C181.17 216.195 184.355 214.992 186.832 212.585C189.381 210.108 190.655 206.958 190.655 203.136C190.655 199.384 189.381 196.269 186.832 193.792C184.355 191.315 181.17 190.076 177.276 190.076C173.312 190.076 170.056 191.315 167.508 193.792C164.96 196.199 163.686 199.349 163.686 203.242C163.686 207.064 164.925 210.179 167.402 212.585C169.95 214.992 173.242 216.195 177.276 216.195ZM318.923 165.018H305.014V236.156H296.095V195.278H276.664V203.454C276.664 210.533 275.001 215.983 271.674 219.805C268.347 223.557 263.569 225.433 257.34 225.433C251.465 225.433 246.723 223.734 243.113 220.336C239.573 216.868 237.804 212.302 237.804 206.639C237.804 200.764 239.715 196.199 243.537 192.943C247.36 189.616 252.279 187.952 258.296 187.952H268.383V165.018H229.841V157.586H318.923V165.018ZM296.095 165.018H276.664V187.952H296.095V165.018ZM268.383 195.278H258.508C254.827 195.278 251.819 196.305 249.483 198.358C247.218 200.41 246.086 203.171 246.086 206.639C246.086 210.037 247.147 212.762 249.271 214.815C251.394 216.868 254.084 217.894 257.34 217.894C260.809 217.894 263.499 216.655 265.41 214.178C267.392 211.7 268.383 208.267 268.383 203.879V195.278ZM448.897 165.018H434.882V236.156H425.963V190.925H410.461C403.666 190.925 398.322 192.518 394.429 195.703C390.606 198.888 388.695 203.596 388.695 209.825C388.695 215.841 390.394 220.513 393.791 223.84C397.189 227.167 402.109 228.83 408.55 228.83H410.886V235.944H407.382C398.959 235.944 392.234 233.714 387.208 229.255C382.254 224.725 379.776 218.213 379.776 209.718C379.776 205.825 380.378 202.286 381.581 199.101H333.695V214.603C333.695 219.133 334.722 222.743 336.775 225.433C338.827 228.122 341.906 229.467 346.012 229.467C349.764 229.467 352.736 228.229 354.931 225.751C357.125 223.203 358.222 219.876 358.222 215.771V214.496H366.716C366.787 214.992 366.823 215.558 366.823 216.195C366.823 222.566 364.947 227.662 361.195 231.485C357.514 235.236 352.489 237.112 346.118 237.112C339.323 237.112 334.085 235.024 330.404 230.848C326.794 226.601 324.989 221.044 324.989 214.178V192.518H334.757C340.703 192.518 345.233 190.925 348.348 187.74C351.462 184.555 353.02 180.201 353.02 174.68V165.018H313.31V157.586H448.897V165.018ZM425.963 165.018H361.726V174.68C361.726 178.361 361.16 181.652 360.027 184.555C358.895 187.457 357.302 189.863 355.249 191.775H386.041C388.66 188.943 392.022 186.82 396.127 185.404C400.233 183.988 404.869 183.28 410.036 183.28H425.963V165.018ZM426.351 158.01C422.67 152.206 419.662 148.03 417.326 145.482C414.92 142.863 412.619 141.164 410.425 140.385C408.23 139.606 405.222 139.217 401.4 139.217H396.94V131.997H401.294C406.461 131.997 410.566 132.528 413.61 133.59C416.654 134.652 419.768 136.987 422.954 140.597C426.139 144.207 430.067 150.012 434.739 158.01H426.351Z" fill="white"/>
</g>
</g>
<defs>
<filter id="filter0_d_15_30" x="17" y="17" width="566" height="366" filterUnits="userSpaceOnUse" color-interpolation-filters="sRGB">
<feFlood flood-opacity="0" result="BackgroundImageFix"/>
<feColorMatrix in="SourceAlpha" type="matrix" values="0 0 0 0 0 0 0 0 0 0 0 0 0 0 0 0 0 0 127 0" result="hardAlpha"/>
<feMorphology radius="2" operator="dilate" in="SourceAlpha" result="effect1_dropShadow_15_30"/>
<feOffset/>
<feGaussianBlur stdDeviation="3"/>
<feComposite in2="hardAlpha" operator="out"/>
<feColorMatrix type="matrix" values="0 0 0 0 1 0 0 0 0 0.859166 0 0 0 0 0.859166 0 0 0 0.5 0"/>
<feBlend mode="normal" in2="BackgroundImageFix" result="effect1_dropShadow_15_30"/>
<feBlend mode="normal" in="SourceGraphic" in2="effect1_dropShadow_15_30" result="shape"/>
</filter>
<filter id="filter1_f_15_30" x="91.2709" y="80.6475" width="417.131" height="207.051" filterUnits="userSpaceOnUse" color-interpolation-filters="sRGB">
<feFlood flood-opacity="0" result="BackgroundImageFix"/>
<feBlend mode="normal" in="SourceGraphic" in2="BackgroundImageFix" result="shape"/>
<feGaussianBlur stdDeviation="23.8416" result="effect1_foregroundBlur_15_30"/>
</filter>
<filter id="filter2_dd_15_30" x="106.908" y="92.8445" width="382.469" height="184.747" filterUnits="userSpaceOnUse" color-interpolation-filters="sRGB">
<feFlood flood-opacity="0" result="BackgroundImageFix"/>
<feColorMatrix in="SourceAlpha" type="matrix" values="0 0 0 0 0 0 0 0 0 0 0 0 0 0 0 0 0 0 127 0" result="hardAlpha"/>
<feOffset dx="0.663604" dy="0.663604"/>
<feGaussianBlur stdDeviation="19.9081"/>
<feComposite in2="hardAlpha" operator="out"/>
<feColorMatrix type="matrix" values="0 0 0 0 0.958333 0 0 0 0 0.12059 0 0 0 0 0.824294 0 0 0 1 0"/>
<feBlend mode="normal" in2="BackgroundImageFix" result="effect1_dropShadow_15_30"/>
<feColorMatrix in="SourceAlpha" type="matrix" values="0 0 0 0 0 0 0 0 0 0 0 0 0 0 0 0 0 0 127 0" result="hardAlpha"/>
<feOffset dy="2.65442"/>
<feGaussianBlur stdDeviation="1.32721"/>
<feComposite in2="hardAlpha" operator="out"/>
<feColorMatrix type="matrix" values="0 0 0 0 0 0 0 0 0 0 0 0 0 0 0 0 0 0 0.6 0"/>
<feBlend mode="normal" in2="effect1_dropShadow_15_30" result="effect2_dropShadow_15_30"/>
<feBlend mode="normal" in="SourceGraphic" in2="effect2_dropShadow_15_30" result="shape"/>
</filter>
<linearGradient id="paint0_linear_15_30" x1="116.5" y1="13" x2="523.5" y2="400" gradientUnits="userSpaceOnUse">
<stop offset="0.00485585" stop-color="#0A0222"/>
<stop offset="0.333333" stop-color="#191422"/>
<stop offset="0.666667" stop-color="#19161F"/>
<stop offset="1" stop-color="#25222B"/>
</linearGradient>
<clipPath id="clip0_15_30">
<rect width="600" height="400" fill="white"/>
</clipPath>
</defs>
</svg>
